<svg xmlns="http://www.w3.org/2000/svg" xmlns:xlink="http://www.w3.org/1999/xlink" width="500" zoomAndPan="magnify" viewBox="0 0 375 374.999991" height="500" preserveAspectRatio="xMidYMid meet" version="1.0"><defs><g/><clipPath id="id1"><path d="M 91.109375 54.257812 L 283.859375 54.257812 L 283.859375 97 L 91.109375 97 Z M 91.109375 54.257812 " clip-rule="nonzero"/></clipPath><clipPath id="id2"><path d="M 91.109375 143.949219 L 292.109375 143.949219 L 292.109375 191.949219 L 91.109375 191.949219 Z M 91.109375 143.949219 " clip-rule="nonzero"/></clipPath><clipPath id="id3"><path d="M 254 145 L 290 145 L 290 185 L 254 185 Z M 254 145 " clip-rule="nonzero"/></clipPath><clipPath id="id4"><path d="M 273.097656 132.738281 L 302.429688 171.675781 L 279.667969 188.824219 L 250.335938 149.886719 Z M 273.097656 132.738281 " clip-rule="nonzero"/></clipPath><clipPath id="id5"><path d="M 273.097656 132.738281 L 302.429688 171.675781 L 279.667969 188.824219 L 250.335938 149.886719 Z M 273.097656 132.738281 " clip-rule="nonzero"/></clipPath></defs><g clip-path="url(#id1)"><path fill="#f4900c" d="M 187.484375 80.074219 C 234.109375 80.074219 271.007812 105.804688 281.925781 92.941406 C 283.191406 90.863281 283.859375 88.714844 283.859375 86.507812 C 283.859375 73.640625 240.707031 54.34375 187.484375 54.34375 C 134.257812 54.34375 91.109375 73.640625 91.109375 86.507812 C 91.109375 88.714844 91.777344 90.863281 93.042969 92.941406 C 103.960938 105.804688 140.859375 80.074219 187.484375 80.074219 Z M 187.484375 80.074219 " fill-opacity="1" fill-rule="nonzero"/></g><path fill="#ffcc4d" d="M 187.484375 73.640625 C 147.566406 73.640625 119.277344 85.285156 108.628906 90.480469 C 105.566406 91.980469 105.167969 95.886719 105.964844 98.703125 C 106.761719 101.519531 174.632812 273.054688 174.632812 273.054688 C 174.632812 273.054688 180.390625 285.917969 187.484375 285.917969 C 194.578125 285.917969 200.335938 273.054688 200.335938 273.054688 L 269.105469 97.949219 C 269.105469 97.949219 270.476562 92.535156 265.453125 90.046875 C 254.253906 84.507812 226.335938 73.640625 187.484375 73.640625 Z M 187.484375 73.640625 " fill-opacity="1" fill-rule="nonzero"/><path fill="#ff0000" d="M 187.484375 253.753906 C 187.484375 239.550781 175.976562 228.023438 161.785156 228.023438 C 160.152344 228.023438 158.570312 228.210938 157.023438 228.507812 L 174.632812 273.054688 C 174.632812 273.054688 175.089844 273.953125 175.855469 275.253906 C 182.851562 270.652344 187.484375 262.753906 187.484375 253.753906 Z M 181.058594 182.996094 C 181.058594 168.785156 169.546875 157.265625 155.359375 157.265625 C 146.195312 157.265625 138.203125 162.101562 133.65625 169.332031 L 148.832031 207.789062 C 150.933594 208.339844 153.089844 208.726562 155.359375 208.726562 C 169.546875 208.726562 181.058594 197.199219 181.058594 182.996094 Z M 181.058594 182.996094 " fill-opacity="1" fill-rule="nonzero"/><path fill="#ff0000" d="M 200.335938 105.804688 C 200.335938 106.648438 200.292969 107.488281 200.210938 108.328125 C 200.128906 109.164062 200.003906 110 199.839844 110.824219 C 199.675781 111.652344 199.472656 112.46875 199.226562 113.273438 C 198.984375 114.082031 198.699219 114.871094 198.378906 115.652344 C 198.054688 116.429688 197.695312 117.191406 197.300781 117.933594 C 196.902344 118.675781 196.46875 119.398438 196.003906 120.101562 C 195.535156 120.800781 195.035156 121.476562 194.5 122.128906 C 193.964844 122.78125 193.402344 123.402344 192.808594 124 C 192.210938 124.59375 191.589844 125.160156 190.9375 125.695312 C 190.289062 126.230469 189.613281 126.730469 188.914062 127.199219 C 188.210938 127.667969 187.492188 128.101562 186.75 128.496094 C 186.007812 128.894531 185.246094 129.253906 184.46875 129.578125 C 183.691406 129.898438 182.898438 130.183594 182.09375 130.425781 C 181.289062 130.671875 180.472656 130.875 179.648438 131.039062 C 178.824219 131.207031 177.992188 131.328125 177.152344 131.410156 C 176.316406 131.492188 175.476562 131.535156 174.632812 131.535156 C 173.792969 131.535156 172.953125 131.492188 172.113281 131.410156 C 171.277344 131.328125 170.445312 131.207031 169.621094 131.039062 C 168.792969 130.875 167.980469 130.671875 167.171875 130.425781 C 166.367188 130.183594 165.578125 129.898438 164.800781 129.578125 C 164.019531 129.253906 163.261719 128.894531 162.519531 128.496094 C 161.777344 128.101562 161.054688 127.667969 160.355469 127.199219 C 159.65625 126.730469 158.980469 126.230469 158.332031 125.695312 C 157.679688 125.160156 157.054688 124.59375 156.460938 124 C 155.867188 123.402344 155.300781 122.78125 154.769531 122.128906 C 154.234375 121.476562 153.734375 120.800781 153.265625 120.101562 C 152.796875 119.398438 152.367188 118.675781 151.96875 117.933594 C 151.570312 117.191406 151.210938 116.429688 150.890625 115.652344 C 150.566406 114.871094 150.285156 114.082031 150.039062 113.273438 C 149.796875 112.46875 149.59375 111.652344 149.429688 110.824219 C 149.261719 110 149.140625 109.164062 149.058594 108.328125 C 148.976562 107.488281 148.933594 106.648438 148.933594 105.804688 C 148.933594 104.960938 148.976562 104.121094 149.058594 103.28125 C 149.140625 102.445312 149.261719 101.613281 149.429688 100.785156 C 149.59375 99.957031 149.796875 99.140625 150.039062 98.335938 C 150.285156 97.53125 150.566406 96.738281 150.890625 95.957031 C 151.210938 95.179688 151.570312 94.417969 151.96875 93.675781 C 152.367188 92.933594 152.796875 92.210938 153.265625 91.511719 C 153.734375 90.808594 154.234375 90.132812 154.769531 89.480469 C 155.300781 88.832031 155.867188 88.207031 156.460938 87.609375 C 157.054688 87.015625 157.679688 86.449219 158.332031 85.914062 C 158.980469 85.378906 159.65625 84.878906 160.355469 84.410156 C 161.054688 83.941406 161.777344 83.511719 162.519531 83.113281 C 163.261719 82.714844 164.019531 82.355469 164.800781 82.03125 C 165.578125 81.710938 166.367188 81.425781 167.171875 81.183594 C 167.980469 80.9375 168.792969 80.734375 169.621094 80.570312 C 170.445312 80.40625 171.277344 80.28125 172.113281 80.199219 C 172.953125 80.117188 173.792969 80.074219 174.632812 80.074219 C 175.476562 80.074219 176.316406 80.117188 177.152344 80.199219 C 177.992188 80.28125 178.824219 80.40625 179.648438 80.570312 C 180.472656 80.734375 181.289062 80.9375 182.09375 81.183594 C 182.898438 81.425781 183.691406 81.710938 184.46875 82.03125 C 185.246094 82.355469 186.007812 82.714844 186.75 83.113281 C 187.492188 83.511719 188.210938 83.941406 188.914062 84.410156 C 189.613281 84.878906 190.289062 85.378906 190.9375 85.914062 C 191.589844 86.449219 192.210938 87.015625 192.808594 87.609375 C 193.402344 88.207031 193.964844 88.832031 194.5 89.480469 C 195.035156 90.132812 195.535156 90.808594 196.003906 91.511719 C 196.46875 92.210938 196.902344 92.933594 197.300781 93.675781 C 197.695312 94.417969 198.054688 95.179688 198.378906 95.957031 C 198.699219 96.738281 198.984375 97.53125 199.226562 98.335938 C 199.472656 99.140625 199.675781 99.957031 199.839844 100.785156 C 200.003906 101.613281 200.128906 102.445312 200.210938 103.28125 C 200.292969 104.121094 200.335938 104.960938 200.335938 105.804688 Z M 200.335938 105.804688 " fill-opacity="1" fill-rule="nonzero"/><path fill="#ff0000" d="M 232.460938 112.238281 C 218.273438 112.238281 206.757812 123.757812 206.757812 137.96875 C 206.757812 152.175781 218.273438 163.699219 232.460938 163.699219 C 236.839844 163.699219 240.90625 162.496094 244.519531 160.558594 L 256.660156 129.644531 C 253.191406 119.539062 243.714844 112.238281 232.460938 112.238281 Z M 193.910156 215.160156 C 193.910156 227.175781 202.183594 237.191406 213.304688 240.015625 L 231.894531 192.691406 C 228.230469 190.675781 224.085938 189.429688 219.609375 189.429688 C 205.421875 189.429688 193.910156 200.957031 193.910156 215.160156 Z M 136.085938 131.535156 C 136.085938 117.324219 124.578125 105.804688 110.382812 105.804688 C 109.824219 105.804688 109.296875 105.933594 108.746094 105.972656 C 112.28125 115.054688 118.863281 131.804688 126.574219 151.367188 C 132.332031 146.644531 136.085938 139.5625 136.085938 131.535156 Z M 136.085938 131.535156 " fill-opacity="1" fill-rule="nonzero"/><g clip-path="url(#id2)"><path fill="#ffffff" d="M 91.117188 143.949219 L 292.101562 143.949219 L 292.101562 191.949219 L 91.117188 191.949219 L 91.117188 143.949219 " fill-opacity="1" fill-rule="nonzero"/></g><g fill="#fbff47" fill-opacity="0.302"><g transform="translate(109.350456, 181.170705)"><g><path d="M 1.171875 -16.5 C 1.171875 -16.800781 1.195312 -17.0625 1.25 -17.28125 C 1.300781 -17.5 1.394531 -17.679688 1.53125 -17.828125 C 1.675781 -17.984375 1.875 -18.097656 2.125 -18.171875 C 2.382812 -18.242188 2.71875 -18.28125 3.125 -18.28125 L 8.8125 -18.28125 C 9.300781 -18.28125 9.675781 -18.207031 9.9375 -18.0625 C 10.195312 -17.925781 10.378906 -17.75 10.484375 -17.53125 C 10.585938 -17.3125 10.644531 -17.082031 10.65625 -16.84375 C 10.664062 -16.601562 10.671875 -16.378906 10.671875 -16.171875 L 10.671875 -1.75 C 11.253906 -1.832031 11.796875 -1.90625 12.296875 -1.96875 C 12.515625 -2 12.726562 -2.023438 12.9375 -2.046875 C 13.15625 -2.078125 13.351562 -2.101562 13.53125 -2.125 C 13.71875 -2.15625 13.882812 -2.175781 14.03125 -2.1875 C 14.175781 -2.207031 14.28125 -2.21875 14.34375 -2.21875 C 14.488281 -2.21875 14.601562 -2.1875 14.6875 -2.125 C 14.78125 -2.070312 14.828125 -1.960938 14.828125 -1.796875 L 14.828125 -0.625 C 14.828125 -0.46875 14.757812 -0.320312 14.625 -0.1875 C 14.5 -0.0625 14.289062 0 14 0 L 3.109375 0 C 2.710938 0 2.382812 -0.0351562 2.125 -0.109375 C 1.875 -0.191406 1.675781 -0.300781 1.53125 -0.4375 C 1.394531 -0.582031 1.300781 -0.765625 1.25 -0.984375 C 1.195312 -1.210938 1.171875 -1.472656 1.171875 -1.765625 Z M 1.171875 -16.5 "/></g></g></g><g fill="#fbff47" fill-opacity="0.302"><g transform="translate(124.43453, 181.170705)"><g><path d="M 6.5 0 C 6.039062 0 5.578125 -0.0234375 5.109375 -0.078125 C 4.648438 -0.140625 4.207031 -0.238281 3.78125 -0.375 C 3.363281 -0.507812 2.972656 -0.679688 2.609375 -0.890625 C 2.242188 -1.097656 1.925781 -1.359375 1.65625 -1.671875 C 1.394531 -1.992188 1.1875 -2.363281 1.03125 -2.78125 C 0.875 -3.207031 0.796875 -3.695312 0.796875 -4.25 C 0.796875 -4.988281 0.9375 -5.617188 1.21875 -6.140625 C 1.5 -6.671875 1.875 -7.109375 2.34375 -7.453125 C 2.820312 -7.804688 3.363281 -8.078125 3.96875 -8.265625 C 4.582031 -8.453125 5.21875 -8.570312 5.875 -8.625 L 5.875 -9.5 C 5.875 -9.832031 5.828125 -10.09375 5.734375 -10.28125 C 5.648438 -10.476562 5.539062 -10.625 5.40625 -10.71875 C 5.28125 -10.820312 5.140625 -10.890625 4.984375 -10.921875 C 4.828125 -10.953125 4.675781 -10.96875 4.53125 -10.96875 C 4.363281 -10.96875 4.179688 -10.941406 3.984375 -10.890625 C 3.796875 -10.835938 3.613281 -10.773438 3.4375 -10.703125 C 3.257812 -10.628906 3.085938 -10.550781 2.921875 -10.46875 C 2.765625 -10.382812 2.628906 -10.304688 2.515625 -10.234375 C 2.460938 -10.203125 2.414062 -10.171875 2.375 -10.140625 C 2.332031 -10.117188 2.289062 -10.109375 2.25 -10.109375 C 2.175781 -10.109375 2.101562 -10.164062 2.03125 -10.28125 L 1.609375 -10.96875 C 1.566406 -11.019531 1.546875 -11.082031 1.546875 -11.15625 C 1.546875 -11.21875 1.570312 -11.273438 1.625 -11.328125 C 1.675781 -11.378906 1.726562 -11.421875 1.78125 -11.453125 C 2.0625 -11.648438 2.414062 -11.847656 2.84375 -12.046875 C 3.28125 -12.253906 3.769531 -12.4375 4.3125 -12.59375 C 4.851562 -12.757812 5.4375 -12.894531 6.0625 -13 C 6.6875 -13.101562 7.335938 -13.15625 8.015625 -13.15625 C 8.648438 -13.15625 9.269531 -13.132812 9.875 -13.09375 C 10.476562 -13.050781 11.050781 -12.957031 11.59375 -12.8125 C 12.132812 -12.675781 12.625 -12.476562 13.0625 -12.21875 C 13.507812 -11.957031 13.894531 -11.613281 14.21875 -11.1875 C 14.550781 -10.769531 14.804688 -10.25 14.984375 -9.625 C 15.160156 -9.007812 15.25 -8.265625 15.25 -7.390625 L 15.25 -1.71875 C 15.25 -1.4375 15.222656 -1.1875 15.171875 -0.96875 C 15.128906 -0.757812 15.035156 -0.582031 14.890625 -0.4375 C 14.742188 -0.289062 14.539062 -0.179688 14.28125 -0.109375 C 14.03125 -0.0351562 13.703125 0 13.296875 0 Z M 5.875 -7 C 5.257812 -7 4.742188 -6.921875 4.328125 -6.765625 C 3.910156 -6.617188 3.570312 -6.414062 3.3125 -6.15625 C 3.0625 -5.90625 2.878906 -5.613281 2.765625 -5.28125 C 2.660156 -4.945312 2.609375 -4.597656 2.609375 -4.234375 C 2.609375 -3.878906 2.660156 -3.539062 2.765625 -3.21875 C 2.878906 -2.90625 3.0625 -2.628906 3.3125 -2.390625 C 3.570312 -2.148438 3.910156 -1.960938 4.328125 -1.828125 C 4.742188 -1.691406 5.257812 -1.625 5.875 -1.625 Z M 5.875 -7 "/></g></g></g><g fill="#fbff47" fill-opacity="0.302"><g transform="translate(140.855169, 181.170705)"><g/></g></g><g fill="#fbff47" fill-opacity="0.302"><g transform="translate(148.670883, 181.170705)"><g><path d="M 1.171875 -16.5 C 1.171875 -16.800781 1.195312 -17.0625 1.25 -17.28125 C 1.300781 -17.5 1.394531 -17.679688 1.53125 -17.828125 C 1.675781 -17.984375 1.875 -18.097656 2.125 -18.171875 C 2.382812 -18.242188 2.71875 -18.28125 3.125 -18.28125 L 8.8125 -18.28125 C 9.394531 -18.28125 9.972656 -18.242188 10.546875 -18.171875 C 11.128906 -18.097656 11.6875 -17.976562 12.21875 -17.8125 C 12.75 -17.644531 13.238281 -17.425781 13.6875 -17.15625 C 14.144531 -16.882812 14.539062 -16.546875 14.875 -16.140625 C 15.207031 -15.734375 15.46875 -15.257812 15.65625 -14.71875 C 15.851562 -14.1875 15.953125 -13.566406 15.953125 -12.859375 C 15.953125 -11.816406 15.8125 -10.9375 15.53125 -10.21875 C 15.25 -9.5 14.863281 -8.90625 14.375 -8.4375 C 13.894531 -7.96875 13.332031 -7.609375 12.6875 -7.359375 C 12.050781 -7.117188 11.378906 -6.945312 10.671875 -6.84375 L 10.671875 -2.0625 C 10.671875 -1.863281 10.648438 -1.644531 10.609375 -1.40625 C 10.578125 -1.175781 10.492188 -0.957031 10.359375 -0.75 C 10.222656 -0.539062 10.015625 -0.363281 9.734375 -0.21875 C 9.460938 -0.0703125 9.078125 0 8.578125 0 L 3.125 0 C 2.71875 0 2.382812 -0.0351562 2.125 -0.109375 C 1.875 -0.191406 1.675781 -0.300781 1.53125 -0.4375 C 1.394531 -0.582031 1.300781 -0.765625 1.25 -0.984375 C 1.195312 -1.210938 1.171875 -1.472656 1.171875 -1.765625 Z M 14.15625 -12.671875 C 14.15625 -13.179688 14.085938 -13.648438 13.953125 -14.078125 C 13.816406 -14.503906 13.609375 -14.878906 13.328125 -15.203125 C 13.046875 -15.523438 12.6875 -15.789062 12.25 -16 C 11.8125 -16.21875 11.285156 -16.363281 10.671875 -16.4375 L 10.671875 -8.53125 C 11.285156 -8.625 11.8125 -8.789062 12.25 -9.03125 C 12.6875 -9.28125 13.046875 -9.585938 13.328125 -9.953125 C 13.609375 -10.316406 13.816406 -10.726562 13.953125 -11.1875 C 14.085938 -11.65625 14.15625 -12.148438 14.15625 -12.671875 Z M 14.15625 -12.671875 "/></g></g></g><g fill="#fbff47" fill-opacity="0.302"><g transform="translate(165.142438, 181.170705)"><g><path d="M 1.171875 -11.265625 C 1.171875 -11.554688 1.195312 -11.8125 1.25 -12.03125 C 1.300781 -12.257812 1.394531 -12.445312 1.53125 -12.59375 C 1.675781 -12.738281 1.875 -12.847656 2.125 -12.921875 C 2.382812 -13.003906 2.71875 -13.046875 3.125 -13.046875 L 8.703125 -13.046875 C 9.097656 -13.046875 9.414062 -13.007812 9.65625 -12.9375 C 9.894531 -12.863281 10.082031 -12.753906 10.21875 -12.609375 C 10.351562 -12.460938 10.441406 -12.28125 10.484375 -12.0625 C 10.535156 -11.84375 10.5625 -11.578125 10.5625 -11.265625 L 10.5625 -1.75 C 10.5625 -1.457031 10.535156 -1.203125 10.484375 -0.984375 C 10.441406 -0.765625 10.351562 -0.582031 10.21875 -0.4375 C 10.082031 -0.289062 9.894531 -0.179688 9.65625 -0.109375 C 9.414062 -0.0351562 9.097656 0 8.703125 0 L 3.125 0 C 2.71875 0 2.382812 -0.0351562 2.125 -0.109375 C 1.875 -0.191406 1.675781 -0.300781 1.53125 -0.4375 C 1.394531 -0.582031 1.300781 -0.765625 1.25 -0.984375 C 1.195312 -1.210938 1.171875 -1.472656 1.171875 -1.765625 Z M 1.640625 -18.484375 C 1.640625 -19.078125 1.75 -19.628906 1.96875 -20.140625 C 2.195312 -20.660156 2.503906 -21.109375 2.890625 -21.484375 C 3.273438 -21.867188 3.722656 -22.171875 4.234375 -22.390625 C 4.753906 -22.617188 5.304688 -22.734375 5.890625 -22.734375 C 6.472656 -22.734375 7.019531 -22.617188 7.53125 -22.390625 C 8.039062 -22.171875 8.488281 -21.867188 8.875 -21.484375 C 9.257812 -21.109375 9.5625 -20.660156 9.78125 -20.140625 C 10.007812 -19.628906 10.125 -19.078125 10.125 -18.484375 C 10.125 -17.910156 10.007812 -17.363281 9.78125 -16.84375 C 9.5625 -16.332031 9.257812 -15.882812 8.875 -15.5 C 8.488281 -15.125 8.039062 -14.820312 7.53125 -14.59375 C 7.019531 -14.375 6.472656 -14.265625 5.890625 -14.265625 C 5.304688 -14.265625 4.753906 -14.375 4.234375 -14.59375 C 3.722656 -14.820312 3.273438 -15.125 2.890625 -15.5 C 2.503906 -15.882812 2.195312 -16.332031 1.96875 -16.84375 C 1.75 -17.363281 1.640625 -17.910156 1.640625 -18.484375 Z M 1.640625 -18.484375 "/></g></g></g><g fill="#fbff47" fill-opacity="0.302"><g transform="translate(176.86601, 181.170705)"><g><path d="M 0.84375 -12.625 C 0.84375 -12.757812 0.867188 -12.863281 0.921875 -12.9375 C 0.984375 -13.007812 1.113281 -13.046875 1.3125 -13.046875 L 13.609375 -13.046875 C 13.929688 -13.046875 14.15625 -13.003906 14.28125 -12.921875 C 14.414062 -12.847656 14.484375 -12.710938 14.484375 -12.515625 C 14.484375 -12.273438 14.40625 -12.015625 14.25 -11.734375 L 9.171875 -1.796875 C 9.960938 -1.816406 10.679688 -1.84375 11.328125 -1.875 C 11.609375 -1.882812 11.882812 -1.894531 12.15625 -1.90625 C 12.4375 -1.914062 12.695312 -1.925781 12.9375 -1.9375 C 13.175781 -1.945312 13.378906 -1.953125 13.546875 -1.953125 C 13.710938 -1.960938 13.832031 -1.96875 13.90625 -1.96875 C 14.050781 -1.96875 14.1875 -1.9375 14.3125 -1.875 C 14.4375 -1.820312 14.5 -1.710938 14.5 -1.546875 L 14.5 -0.625 C 14.5 -0.46875 14.445312 -0.320312 14.34375 -0.1875 C 14.25 -0.0625 14.0625 0 13.78125 0 L 0.984375 0 C 0.734375 0 0.546875 -0.0507812 0.421875 -0.15625 C 0.304688 -0.257812 0.25 -0.378906 0.25 -0.515625 C 0.25 -0.691406 0.28125 -0.859375 0.34375 -1.015625 C 0.414062 -1.179688 0.519531 -1.398438 0.65625 -1.671875 L 5.609375 -11.25 C 4.941406 -11.21875 4.320312 -11.191406 3.75 -11.171875 C 3.507812 -11.148438 3.265625 -11.132812 3.015625 -11.125 C 2.773438 -11.113281 2.539062 -11.101562 2.3125 -11.09375 C 2.082031 -11.09375 1.878906 -11.085938 1.703125 -11.078125 C 1.523438 -11.078125 1.382812 -11.078125 1.28125 -11.078125 C 1.1875 -11.078125 1.085938 -11.097656 0.984375 -11.140625 C 0.890625 -11.191406 0.84375 -11.300781 0.84375 -11.46875 Z M 0.84375 -12.625 "/></g></g></g><g fill="#fbff47" fill-opacity="0.302"><g transform="translate(191.517288, 181.170705)"><g><path d="M 0.84375 -12.625 C 0.84375 -12.757812 0.867188 -12.863281 0.921875 -12.9375 C 0.984375 -13.007812 1.113281 -13.046875 1.3125 -13.046875 L 13.609375 -13.046875 C 13.929688 -13.046875 14.15625 -13.003906 14.28125 -12.921875 C 14.414062 -12.847656 14.484375 -12.710938 14.484375 -12.515625 C 14.484375 -12.273438 14.40625 -12.015625 14.25 -11.734375 L 9.171875 -1.796875 C 9.960938 -1.816406 10.679688 -1.84375 11.328125 -1.875 C 11.609375 -1.882812 11.882812 -1.894531 12.15625 -1.90625 C 12.4375 -1.914062 12.695312 -1.925781 12.9375 -1.9375 C 13.175781 -1.945312 13.378906 -1.953125 13.546875 -1.953125 C 13.710938 -1.960938 13.832031 -1.96875 13.90625 -1.96875 C 14.050781 -1.96875 14.1875 -1.9375 14.3125 -1.875 C 14.4375 -1.820312 14.5 -1.710938 14.5 -1.546875 L 14.5 -0.625 C 14.5 -0.46875 14.445312 -0.320312 14.34375 -0.1875 C 14.25 -0.0625 14.0625 0 13.78125 0 L 0.984375 0 C 0.734375 0 0.546875 -0.0507812 0.421875 -0.15625 C 0.304688 -0.257812 0.25 -0.378906 0.25 -0.515625 C 0.25 -0.691406 0.28125 -0.859375 0.34375 -1.015625 C 0.414062 -1.179688 0.519531 -1.398438 0.65625 -1.671875 L 5.609375 -11.25 C 4.941406 -11.21875 4.320312 -11.191406 3.75 -11.171875 C 3.507812 -11.148438 3.265625 -11.132812 3.015625 -11.125 C 2.773438 -11.113281 2.539062 -11.101562 2.3125 -11.09375 C 2.082031 -11.09375 1.878906 -11.085938 1.703125 -11.078125 C 1.523438 -11.078125 1.382812 -11.078125 1.28125 -11.078125 C 1.1875 -11.078125 1.085938 -11.097656 0.984375 -11.140625 C 0.890625 -11.191406 0.84375 -11.300781 0.84375 -11.46875 Z M 0.84375 -12.625 "/></g></g></g><g fill="#fbff47" fill-opacity="0.302"><g transform="translate(206.168566, 181.170705)"><g><path d="M 6.5 0 C 6.039062 0 5.578125 -0.0234375 5.109375 -0.078125 C 4.648438 -0.140625 4.207031 -0.238281 3.78125 -0.375 C 3.363281 -0.507812 2.972656 -0.679688 2.609375 -0.890625 C 2.242188 -1.097656 1.925781 -1.359375 1.65625 -1.671875 C 1.394531 -1.992188 1.1875 -2.363281 1.03125 -2.78125 C 0.875 -3.207031 0.796875 -3.695312 0.796875 -4.25 C 0.796875 -4.988281 0.9375 -5.617188 1.21875 -6.140625 C 1.5 -6.671875 1.875 -7.109375 2.34375 -7.453125 C 2.820312 -7.804688 3.363281 -8.078125 3.96875 -8.265625 C 4.582031 -8.453125 5.21875 -8.570312 5.875 -8.625 L 5.875 -9.5 C 5.875 -9.832031 5.828125 -10.09375 5.734375 -10.28125 C 5.648438 -10.476562 5.539062 -10.625 5.40625 -10.71875 C 5.28125 -10.820312 5.140625 -10.890625 4.984375 -10.921875 C 4.828125 -10.953125 4.675781 -10.96875 4.53125 -10.96875 C 4.363281 -10.96875 4.179688 -10.941406 3.984375 -10.890625 C 3.796875 -10.835938 3.613281 -10.773438 3.4375 -10.703125 C 3.257812 -10.628906 3.085938 -10.550781 2.921875 -10.46875 C 2.765625 -10.382812 2.628906 -10.304688 2.515625 -10.234375 C 2.460938 -10.203125 2.414062 -10.171875 2.375 -10.140625 C 2.332031 -10.117188 2.289062 -10.109375 2.25 -10.109375 C 2.175781 -10.109375 2.101562 -10.164062 2.03125 -10.28125 L 1.609375 -10.96875 C 1.566406 -11.019531 1.546875 -11.082031 1.546875 -11.15625 C 1.546875 -11.21875 1.570312 -11.273438 1.625 -11.328125 C 1.675781 -11.378906 1.726562 -11.421875 1.78125 -11.453125 C 2.0625 -11.648438 2.414062 -11.847656 2.84375 -12.046875 C 3.28125 -12.253906 3.769531 -12.4375 4.3125 -12.59375 C 4.851562 -12.757812 5.4375 -12.894531 6.0625 -13 C 6.6875 -13.101562 7.335938 -13.15625 8.015625 -13.15625 C 8.648438 -13.15625 9.269531 -13.132812 9.875 -13.09375 C 10.476562 -13.050781 11.050781 -12.957031 11.59375 -12.8125 C 12.132812 -12.675781 12.625 -12.476562 13.0625 -12.21875 C 13.507812 -11.957031 13.894531 -11.613281 14.21875 -11.1875 C 14.550781 -10.769531 14.804688 -10.25 14.984375 -9.625 C 15.160156 -9.007812 15.25 -8.265625 15.25 -7.390625 L 15.25 -1.71875 C 15.25 -1.4375 15.222656 -1.1875 15.171875 -0.96875 C 15.128906 -0.757812 15.035156 -0.582031 14.890625 -0.4375 C 14.742188 -0.289062 14.539062 -0.179688 14.28125 -0.109375 C 14.03125 -0.0351562 13.703125 0 13.296875 0 Z M 5.875 -7 C 5.257812 -7 4.742188 -6.921875 4.328125 -6.765625 C 3.910156 -6.617188 3.570312 -6.414062 3.3125 -6.15625 C 3.0625 -5.90625 2.878906 -5.613281 2.765625 -5.28125 C 2.660156 -4.945312 2.609375 -4.597656 2.609375 -4.234375 C 2.609375 -3.878906 2.660156 -3.539062 2.765625 -3.21875 C 2.878906 -2.90625 3.0625 -2.628906 3.3125 -2.390625 C 3.570312 -2.148438 3.910156 -1.960938 4.328125 -1.828125 C 4.742188 -1.691406 5.257812 -1.625 5.875 -1.625 Z M 5.875 -7 "/></g></g></g><g fill="#fbff47" fill-opacity="0.302"><g transform="translate(222.589204, 181.170705)"><g><path d="M 1.171875 -11.265625 C 1.171875 -11.554688 1.195312 -11.8125 1.25 -12.03125 C 1.300781 -12.257812 1.394531 -12.445312 1.53125 -12.59375 C 1.675781 -12.738281 1.875 -12.847656 2.125 -12.921875 C 2.382812 -13.003906 2.71875 -13.046875 3.125 -13.046875 L 8.703125 -13.046875 C 9.097656 -13.046875 9.414062 -13.003906 9.65625 -12.921875 C 9.894531 -12.847656 10.082031 -12.734375 10.21875 -12.578125 C 10.351562 -12.421875 10.441406 -12.226562 10.484375 -12 C 10.535156 -11.769531 10.5625 -11.503906 10.5625 -11.203125 L 10.5625 -10.265625 L 13.390625 -13.015625 C 13.566406 -13.191406 13.738281 -13.28125 13.90625 -13.28125 C 14 -13.28125 14.082031 -13.257812 14.15625 -13.21875 C 14.226562 -13.1875 14.289062 -13.144531 14.34375 -13.09375 L 14.90625 -12.484375 C 15.039062 -12.359375 15.109375 -12.222656 15.109375 -12.078125 C 15.109375 -11.984375 15.078125 -11.882812 15.015625 -11.78125 C 14.960938 -11.6875 14.878906 -11.59375 14.765625 -11.5 L 10.5625 -8.234375 L 10.5625 -1.796875 C 10.5625 -1.492188 10.535156 -1.226562 10.484375 -1 C 10.441406 -0.78125 10.347656 -0.597656 10.203125 -0.453125 C 10.066406 -0.304688 9.863281 -0.191406 9.59375 -0.109375 C 9.320312 -0.0351562 8.953125 0 8.484375 0 L 3.125 0 C 2.71875 0 2.382812 -0.0351562 2.125 -0.109375 C 1.875 -0.191406 1.675781 -0.300781 1.53125 -0.4375 C 1.394531 -0.582031 1.300781 -0.765625 1.25 -0.984375 C 1.195312 -1.210938 1.171875 -1.472656 1.171875 -1.765625 Z M 1.171875 -11.265625 "/></g></g></g><g fill="#fbff47" fill-opacity="0.302"><g transform="translate(236.731324, 181.170705)"><g><path d="M 1.171875 -11.265625 C 1.171875 -11.554688 1.195312 -11.8125 1.25 -12.03125 C 1.300781 -12.257812 1.394531 -12.445312 1.53125 -12.59375 C 1.675781 -12.738281 1.875 -12.847656 2.125 -12.921875 C 2.382812 -13.003906 2.71875 -13.046875 3.125 -13.046875 L 8.703125 -13.046875 C 9.097656 -13.046875 9.414062 -13.007812 9.65625 -12.9375 C 9.894531 -12.863281 10.082031 -12.753906 10.21875 -12.609375 C 10.351562 -12.460938 10.441406 -12.28125 10.484375 -12.0625 C 10.535156 -11.84375 10.5625 -11.578125 10.5625 -11.265625 L 10.5625 -1.75 C 10.5625 -1.457031 10.535156 -1.203125 10.484375 -0.984375 C 10.441406 -0.765625 10.351562 -0.582031 10.21875 -0.4375 C 10.082031 -0.289062 9.894531 -0.179688 9.65625 -0.109375 C 9.414062 -0.0351562 9.097656 0 8.703125 0 L 3.125 0 C 2.71875 0 2.382812 -0.0351562 2.125 -0.109375 C 1.875 -0.191406 1.675781 -0.300781 1.53125 -0.4375 C 1.394531 -0.582031 1.300781 -0.765625 1.25 -0.984375 C 1.195312 -1.210938 1.171875 -1.472656 1.171875 -1.765625 Z M 1.640625 -18.484375 C 1.640625 -19.078125 1.75 -19.628906 1.96875 -20.140625 C 2.195312 -20.660156 2.503906 -21.109375 2.890625 -21.484375 C 3.273438 -21.867188 3.722656 -22.171875 4.234375 -22.390625 C 4.753906 -22.617188 5.304688 -22.734375 5.890625 -22.734375 C 6.472656 -22.734375 7.019531 -22.617188 7.53125 -22.390625 C 8.039062 -22.171875 8.488281 -21.867188 8.875 -21.484375 C 9.257812 -21.109375 9.5625 -20.660156 9.78125 -20.140625 C 10.007812 -19.628906 10.125 -19.078125 10.125 -18.484375 C 10.125 -17.910156 10.007812 -17.363281 9.78125 -16.84375 C 9.5625 -16.332031 9.257812 -15.882812 8.875 -15.5 C 8.488281 -15.125 8.039062 -14.820312 7.53125 -14.59375 C 7.019531 -14.375 6.472656 -14.265625 5.890625 -14.265625 C 5.304688 -14.265625 4.753906 -14.375 4.234375 -14.59375 C 3.722656 -14.820312 3.273438 -15.125 2.890625 -15.5 C 2.503906 -15.882812 2.195312 -16.332031 1.96875 -16.84375 C 1.75 -17.363281 1.640625 -17.910156 1.640625 -18.484375 Z M 1.640625 -18.484375 "/></g></g></g><g fill="#fbff47" fill-opacity="0.302"><g transform="translate(248.454901, 181.170705)"><g><path d="M 6.5 0 C 6.039062 0 5.578125 -0.0234375 5.109375 -0.078125 C 4.648438 -0.140625 4.207031 -0.238281 3.78125 -0.375 C 3.363281 -0.507812 2.972656 -0.679688 2.609375 -0.890625 C 2.242188 -1.097656 1.925781 -1.359375 1.65625 -1.671875 C 1.394531 -1.992188 1.1875 -2.363281 1.03125 -2.78125 C 0.875 -3.207031 0.796875 -3.695312 0.796875 -4.25 C 0.796875 -4.988281 0.9375 -5.617188 1.21875 -6.140625 C 1.5 -6.671875 1.875 -7.109375 2.34375 -7.453125 C 2.820312 -7.804688 3.363281 -8.078125 3.96875 -8.265625 C 4.582031 -8.453125 5.21875 -8.570312 5.875 -8.625 L 5.875 -9.5 C 5.875 -9.832031 5.828125 -10.09375 5.734375 -10.28125 C 5.648438 -10.476562 5.539062 -10.625 5.40625 -10.71875 C 5.28125 -10.820312 5.140625 -10.890625 4.984375 -10.921875 C 4.828125 -10.953125 4.675781 -10.96875 4.53125 -10.96875 C 4.363281 -10.96875 4.179688 -10.941406 3.984375 -10.890625 C 3.796875 -10.835938 3.613281 -10.773438 3.4375 -10.703125 C 3.257812 -10.628906 3.085938 -10.550781 2.921875 -10.46875 C 2.765625 -10.382812 2.628906 -10.304688 2.515625 -10.234375 C 2.460938 -10.203125 2.414062 -10.171875 2.375 -10.140625 C 2.332031 -10.117188 2.289062 -10.109375 2.25 -10.109375 C 2.175781 -10.109375 2.101562 -10.164062 2.03125 -10.28125 L 1.609375 -10.96875 C 1.566406 -11.019531 1.546875 -11.082031 1.546875 -11.15625 C 1.546875 -11.21875 1.570312 -11.273438 1.625 -11.328125 C 1.675781 -11.378906 1.726562 -11.421875 1.78125 -11.453125 C 2.0625 -11.648438 2.414062 -11.847656 2.84375 -12.046875 C 3.28125 -12.253906 3.769531 -12.4375 4.3125 -12.59375 C 4.851562 -12.757812 5.4375 -12.894531 6.0625 -13 C 6.6875 -13.101562 7.335938 -13.15625 8.015625 -13.15625 C 8.648438 -13.15625 9.269531 -13.132812 9.875 -13.09375 C 10.476562 -13.050781 11.050781 -12.957031 11.59375 -12.8125 C 12.132812 -12.675781 12.625 -12.476562 13.0625 -12.21875 C 13.507812 -11.957031 13.894531 -11.613281 14.21875 -11.1875 C 14.550781 -10.769531 14.804688 -10.25 14.984375 -9.625 C 15.160156 -9.007812 15.25 -8.265625 15.25 -7.390625 L 15.25 -1.71875 C 15.25 -1.4375 15.222656 -1.1875 15.171875 -0.96875 C 15.128906 -0.757812 15.035156 -0.582031 14.890625 -0.4375 C 14.742188 -0.289062 14.539062 -0.179688 14.28125 -0.109375 C 14.03125 -0.0351562 13.703125 0 13.296875 0 Z M 5.875 -7 C 5.257812 -7 4.742188 -6.921875 4.328125 -6.765625 C 3.910156 -6.617188 3.570312 -6.414062 3.3125 -6.15625 C 3.0625 -5.90625 2.878906 -5.613281 2.765625 -5.28125 C 2.660156 -4.945312 2.609375 -4.597656 2.609375 -4.234375 C 2.609375 -3.878906 2.660156 -3.539062 2.765625 -3.21875 C 2.878906 -2.90625 3.0625 -2.628906 3.3125 -2.390625 C 3.570312 -2.148438 3.910156 -1.960938 4.328125 -1.828125 C 4.742188 -1.691406 5.257812 -1.625 5.875 -1.625 Z M 5.875 -7 "/></g></g></g><g fill="#fbff47" fill-opacity="0.502"><g transform="translate(108.309288, 180.386118)"><g><path d="M 1.171875 -16.5 C 1.171875 -16.800781 1.195312 -17.0625 1.25 -17.28125 C 1.300781 -17.5 1.394531 -17.679688 1.53125 -17.828125 C 1.675781 -17.984375 1.875 -18.097656 2.125 -18.171875 C 2.382812 -18.242188 2.71875 -18.28125 3.125 -18.28125 L 8.8125 -18.28125 C 9.300781 -18.28125 9.675781 -18.207031 9.9375 -18.0625 C 10.195312 -17.925781 10.378906 -17.75 10.484375 -17.53125 C 10.585938 -17.3125 10.644531 -17.082031 10.65625 -16.84375 C 10.664062 -16.601562 10.671875 -16.378906 10.671875 -16.171875 L 10.671875 -1.75 C 11.253906 -1.832031 11.796875 -1.90625 12.296875 -1.96875 C 12.515625 -2 12.726562 -2.023438 12.9375 -2.046875 C 13.15625 -2.078125 13.351562 -2.101562 13.53125 -2.125 C 13.71875 -2.15625 13.882812 -2.175781 14.03125 -2.1875 C 14.175781 -2.207031 14.28125 -2.21875 14.34375 -2.21875 C 14.488281 -2.21875 14.601562 -2.1875 14.6875 -2.125 C 14.78125 -2.070312 14.828125 -1.960938 14.828125 -1.796875 L 14.828125 -0.625 C 14.828125 -0.46875 14.757812 -0.320312 14.625 -0.1875 C 14.5 -0.0625 14.289062 0 14 0 L 3.109375 0 C 2.710938 0 2.382812 -0.0351562 2.125 -0.109375 C 1.875 -0.191406 1.675781 -0.300781 1.53125 -0.4375 C 1.394531 -0.582031 1.300781 -0.765625 1.25 -0.984375 C 1.195312 -1.210938 1.171875 -1.472656 1.171875 -1.765625 Z M 1.171875 -16.5 "/></g></g></g><g fill="#fbff47" fill-opacity="0.502"><g transform="translate(123.393362, 180.386118)"><g><path d="M 6.5 0 C 6.039062 0 5.578125 -0.0234375 5.109375 -0.078125 C 4.648438 -0.140625 4.207031 -0.238281 3.78125 -0.375 C 3.363281 -0.507812 2.972656 -0.679688 2.609375 -0.890625 C 2.242188 -1.097656 1.925781 -1.359375 1.65625 -1.671875 C 1.394531 -1.992188 1.1875 -2.363281 1.03125 -2.78125 C 0.875 -3.207031 0.796875 -3.695312 0.796875 -4.25 C 0.796875 -4.988281 0.9375 -5.617188 1.21875 -6.140625 C 1.5 -6.671875 1.875 -7.109375 2.34375 -7.453125 C 2.820312 -7.804688 3.363281 -8.078125 3.96875 -8.265625 C 4.582031 -8.453125 5.21875 -8.570312 5.875 -8.625 L 5.875 -9.5 C 5.875 -9.832031 5.828125 -10.09375 5.734375 -10.28125 C 5.648438 -10.476562 5.539062 -10.625 5.40625 -10.71875 C 5.28125 -10.820312 5.140625 -10.890625 4.984375 -10.921875 C 4.828125 -10.953125 4.675781 -10.96875 4.53125 -10.96875 C 4.363281 -10.96875 4.179688 -10.941406 3.984375 -10.890625 C 3.796875 -10.835938 3.613281 -10.773438 3.4375 -10.703125 C 3.257812 -10.628906 3.085938 -10.550781 2.921875 -10.46875 C 2.765625 -10.382812 2.628906 -10.304688 2.515625 -10.234375 C 2.460938 -10.203125 2.414062 -10.171875 2.375 -10.140625 C 2.332031 -10.117188 2.289062 -10.109375 2.25 -10.109375 C 2.175781 -10.109375 2.101562 -10.164062 2.03125 -10.28125 L 1.609375 -10.96875 C 1.566406 -11.019531 1.546875 -11.082031 1.546875 -11.15625 C 1.546875 -11.21875 1.570312 -11.273438 1.625 -11.328125 C 1.675781 -11.378906 1.726562 -11.421875 1.78125 -11.453125 C 2.0625 -11.648438 2.414062 -11.847656 2.84375 -12.046875 C 3.28125 -12.253906 3.769531 -12.4375 4.3125 -12.59375 C 4.851562 -12.757812 5.4375 -12.894531 6.0625 -13 C 6.6875 -13.101562 7.335938 -13.15625 8.015625 -13.15625 C 8.648438 -13.15625 9.269531 -13.132812 9.875 -13.09375 C 10.476562 -13.050781 11.050781 -12.957031 11.59375 -12.8125 C 12.132812 -12.675781 12.625 -12.476562 13.0625 -12.21875 C 13.507812 -11.957031 13.894531 -11.613281 14.21875 -11.1875 C 14.550781 -10.769531 14.804688 -10.25 14.984375 -9.625 C 15.160156 -9.007812 15.25 -8.265625 15.25 -7.390625 L 15.25 -1.71875 C 15.25 -1.4375 15.222656 -1.1875 15.171875 -0.96875 C 15.128906 -0.757812 15.035156 -0.582031 14.890625 -0.4375 C 14.742188 -0.289062 14.539062 -0.179688 14.28125 -0.109375 C 14.03125 -0.0351562 13.703125 0 13.296875 0 Z M 5.875 -7 C 5.257812 -7 4.742188 -6.921875 4.328125 -6.765625 C 3.910156 -6.617188 3.570312 -6.414062 3.3125 -6.15625 C 3.0625 -5.90625 2.878906 -5.613281 2.765625 -5.28125 C 2.660156 -4.945312 2.609375 -4.597656 2.609375 -4.234375 C 2.609375 -3.878906 2.660156 -3.539062 2.765625 -3.21875 C 2.878906 -2.90625 3.0625 -2.628906 3.3125 -2.390625 C 3.570312 -2.148438 3.910156 -1.960938 4.328125 -1.828125 C 4.742188 -1.691406 5.257812 -1.625 5.875 -1.625 Z M 5.875 -7 "/></g></g></g><g fill="#fbff47" fill-opacity="0.502"><g transform="translate(139.814001, 180.386118)"><g/></g></g><g fill="#fbff47" fill-opacity="0.502"><g transform="translate(147.629715, 180.386118)"><g><path d="M 1.171875 -16.5 C 1.171875 -16.800781 1.195312 -17.0625 1.25 -17.28125 C 1.300781 -17.5 1.394531 -17.679688 1.53125 -17.828125 C 1.675781 -17.984375 1.875 -18.097656 2.125 -18.171875 C 2.382812 -18.242188 2.71875 -18.28125 3.125 -18.28125 L 8.8125 -18.28125 C 9.394531 -18.28125 9.972656 -18.242188 10.546875 -18.171875 C 11.128906 -18.097656 11.6875 -17.976562 12.21875 -17.8125 C 12.75 -17.644531 13.238281 -17.425781 13.6875 -17.15625 C 14.144531 -16.882812 14.539062 -16.546875 14.875 -16.140625 C 15.207031 -15.734375 15.46875 -15.257812 15.65625 -14.71875 C 15.851562 -14.1875 15.953125 -13.566406 15.953125 -12.859375 C 15.953125 -11.816406 15.8125 -10.9375 15.53125 -10.21875 C 15.25 -9.5 14.863281 -8.90625 14.375 -8.4375 C 13.894531 -7.96875 13.332031 -7.609375 12.6875 -7.359375 C 12.050781 -7.117188 11.378906 -6.945312 10.671875 -6.84375 L 10.671875 -2.0625 C 10.671875 -1.863281 10.648438 -1.644531 10.609375 -1.40625 C 10.578125 -1.175781 10.492188 -0.957031 10.359375 -0.75 C 10.222656 -0.539062 10.015625 -0.363281 9.734375 -0.21875 C 9.460938 -0.0703125 9.078125 0 8.578125 0 L 3.125 0 C 2.71875 0 2.382812 -0.0351562 2.125 -0.109375 C 1.875 -0.191406 1.675781 -0.300781 1.53125 -0.4375 C 1.394531 -0.582031 1.300781 -0.765625 1.25 -0.984375 C 1.195312 -1.210938 1.171875 -1.472656 1.171875 -1.765625 Z M 14.15625 -12.671875 C 14.15625 -13.179688 14.085938 -13.648438 13.953125 -14.078125 C 13.816406 -14.503906 13.609375 -14.878906 13.328125 -15.203125 C 13.046875 -15.523438 12.6875 -15.789062 12.25 -16 C 11.8125 -16.21875 11.285156 -16.363281 10.671875 -16.4375 L 10.671875 -8.53125 C 11.285156 -8.625 11.8125 -8.789062 12.25 -9.03125 C 12.6875 -9.28125 13.046875 -9.585938 13.328125 -9.953125 C 13.609375 -10.316406 13.816406 -10.726562 13.953125 -11.1875 C 14.085938 -11.65625 14.15625 -12.148438 14.15625 -12.671875 Z M 14.15625 -12.671875 "/></g></g></g><g fill="#fbff47" fill-opacity="0.502"><g transform="translate(164.10127, 180.386118)"><g><path d="M 1.171875 -11.265625 C 1.171875 -11.554688 1.195312 -11.8125 1.25 -12.03125 C 1.300781 -12.257812 1.394531 -12.445312 1.53125 -12.59375 C 1.675781 -12.738281 1.875 -12.847656 2.125 -12.921875 C 2.382812 -13.003906 2.71875 -13.046875 3.125 -13.046875 L 8.703125 -13.046875 C 9.097656 -13.046875 9.414062 -13.007812 9.65625 -12.9375 C 9.894531 -12.863281 10.082031 -12.753906 10.21875 -12.609375 C 10.351562 -12.460938 10.441406 -12.28125 10.484375 -12.0625 C 10.535156 -11.84375 10.5625 -11.578125 10.5625 -11.265625 L 10.5625 -1.75 C 10.5625 -1.457031 10.535156 -1.203125 10.484375 -0.984375 C 10.441406 -0.765625 10.351562 -0.582031 10.21875 -0.4375 C 10.082031 -0.289062 9.894531 -0.179688 9.65625 -0.109375 C 9.414062 -0.0351562 9.097656 0 8.703125 0 L 3.125 0 C 2.71875 0 2.382812 -0.0351562 2.125 -0.109375 C 1.875 -0.191406 1.675781 -0.300781 1.53125 -0.4375 C 1.394531 -0.582031 1.300781 -0.765625 1.25 -0.984375 C 1.195312 -1.210938 1.171875 -1.472656 1.171875 -1.765625 Z M 1.640625 -18.484375 C 1.640625 -19.078125 1.75 -19.628906 1.96875 -20.140625 C 2.195312 -20.660156 2.503906 -21.109375 2.890625 -21.484375 C 3.273438 -21.867188 3.722656 -22.171875 4.234375 -22.390625 C 4.753906 -22.617188 5.304688 -22.734375 5.890625 -22.734375 C 6.472656 -22.734375 7.019531 -22.617188 7.53125 -22.390625 C 8.039062 -22.171875 8.488281 -21.867188 8.875 -21.484375 C 9.257812 -21.109375 9.5625 -20.660156 9.78125 -20.140625 C 10.007812 -19.628906 10.125 -19.078125 10.125 -18.484375 C 10.125 -17.910156 10.007812 -17.363281 9.78125 -16.84375 C 9.5625 -16.332031 9.257812 -15.882812 8.875 -15.5 C 8.488281 -15.125 8.039062 -14.820312 7.53125 -14.59375 C 7.019531 -14.375 6.472656 -14.265625 5.890625 -14.265625 C 5.304688 -14.265625 4.753906 -14.375 4.234375 -14.59375 C 3.722656 -14.820312 3.273438 -15.125 2.890625 -15.5 C 2.503906 -15.882812 2.195312 -16.332031 1.96875 -16.84375 C 1.75 -17.363281 1.640625 -17.910156 1.640625 -18.484375 Z M 1.640625 -18.484375 "/></g></g></g><g fill="#fbff47" fill-opacity="0.502"><g transform="translate(175.824842, 180.386118)"><g><path d="M 0.84375 -12.625 C 0.84375 -12.757812 0.867188 -12.863281 0.921875 -12.9375 C 0.984375 -13.007812 1.113281 -13.046875 1.3125 -13.046875 L 13.609375 -13.046875 C 13.929688 -13.046875 14.15625 -13.003906 14.28125 -12.921875 C 14.414062 -12.847656 14.484375 -12.710938 14.484375 -12.515625 C 14.484375 -12.273438 14.40625 -12.015625 14.25 -11.734375 L 9.171875 -1.796875 C 9.960938 -1.816406 10.679688 -1.84375 11.328125 -1.875 C 11.609375 -1.882812 11.882812 -1.894531 12.15625 -1.90625 C 12.4375 -1.914062 12.695312 -1.925781 12.9375 -1.9375 C 13.175781 -1.945312 13.378906 -1.953125 13.546875 -1.953125 C 13.710938 -1.960938 13.832031 -1.96875 13.90625 -1.96875 C 14.050781 -1.96875 14.1875 -1.9375 14.3125 -1.875 C 14.4375 -1.820312 14.5 -1.710938 14.5 -1.546875 L 14.5 -0.625 C 14.5 -0.46875 14.445312 -0.320312 14.34375 -0.1875 C 14.25 -0.0625 14.0625 0 13.78125 0 L 0.984375 0 C 0.734375 0 0.546875 -0.0507812 0.421875 -0.15625 C 0.304688 -0.257812 0.25 -0.378906 0.25 -0.515625 C 0.25 -0.691406 0.28125 -0.859375 0.34375 -1.015625 C 0.414062 -1.179688 0.519531 -1.398438 0.65625 -1.671875 L 5.609375 -11.25 C 4.941406 -11.21875 4.320312 -11.191406 3.75 -11.171875 C 3.507812 -11.148438 3.265625 -11.132812 3.015625 -11.125 C 2.773438 -11.113281 2.539062 -11.101562 2.3125 -11.09375 C 2.082031 -11.09375 1.878906 -11.085938 1.703125 -11.078125 C 1.523438 -11.078125 1.382812 -11.078125 1.28125 -11.078125 C 1.1875 -11.078125 1.085938 -11.097656 0.984375 -11.140625 C 0.890625 -11.191406 0.84375 -11.300781 0.84375 -11.46875 Z M 0.84375 -12.625 "/></g></g></g><g fill="#fbff47" fill-opacity="0.502"><g transform="translate(190.47612, 180.386118)"><g><path d="M 0.84375 -12.625 C 0.84375 -12.757812 0.867188 -12.863281 0.921875 -12.9375 C 0.984375 -13.007812 1.113281 -13.046875 1.3125 -13.046875 L 13.609375 -13.046875 C 13.929688 -13.046875 14.15625 -13.003906 14.28125 -12.921875 C 14.414062 -12.847656 14.484375 -12.710938 14.484375 -12.515625 C 14.484375 -12.273438 14.40625 -12.015625 14.25 -11.734375 L 9.171875 -1.796875 C 9.960938 -1.816406 10.679688 -1.84375 11.328125 -1.875 C 11.609375 -1.882812 11.882812 -1.894531 12.15625 -1.90625 C 12.4375 -1.914062 12.695312 -1.925781 12.9375 -1.9375 C 13.175781 -1.945312 13.378906 -1.953125 13.546875 -1.953125 C 13.710938 -1.960938 13.832031 -1.96875 13.90625 -1.96875 C 14.050781 -1.96875 14.1875 -1.9375 14.3125 -1.875 C 14.4375 -1.820312 14.5 -1.710938 14.5 -1.546875 L 14.5 -0.625 C 14.5 -0.46875 14.445312 -0.320312 14.34375 -0.1875 C 14.25 -0.0625 14.0625 0 13.78125 0 L 0.984375 0 C 0.734375 0 0.546875 -0.0507812 0.421875 -0.15625 C 0.304688 -0.257812 0.25 -0.378906 0.25 -0.515625 C 0.25 -0.691406 0.28125 -0.859375 0.34375 -1.015625 C 0.414062 -1.179688 0.519531 -1.398438 0.65625 -1.671875 L 5.609375 -11.25 C 4.941406 -11.21875 4.320312 -11.191406 3.75 -11.171875 C 3.507812 -11.148438 3.265625 -11.132812 3.015625 -11.125 C 2.773438 -11.113281 2.539062 -11.101562 2.3125 -11.09375 C 2.082031 -11.09375 1.878906 -11.085938 1.703125 -11.078125 C 1.523438 -11.078125 1.382812 -11.078125 1.28125 -11.078125 C 1.1875 -11.078125 1.085938 -11.097656 0.984375 -11.140625 C 0.890625 -11.191406 0.84375 -11.300781 0.84375 -11.46875 Z M 0.84375 -12.625 "/></g></g></g><g fill="#fbff47" fill-opacity="0.502"><g transform="translate(205.127398, 180.386118)"><g><path d="M 6.5 0 C 6.039062 0 5.578125 -0.0234375 5.109375 -0.078125 C 4.648438 -0.140625 4.207031 -0.238281 3.78125 -0.375 C 3.363281 -0.507812 2.972656 -0.679688 2.609375 -0.890625 C 2.242188 -1.097656 1.925781 -1.359375 1.65625 -1.671875 C 1.394531 -1.992188 1.1875 -2.363281 1.03125 -2.78125 C 0.875 -3.207031 0.796875 -3.695312 0.796875 -4.25 C 0.796875 -4.988281 0.9375 -5.617188 1.21875 -6.140625 C 1.5 -6.671875 1.875 -7.109375 2.34375 -7.453125 C 2.820312 -7.804688 3.363281 -8.078125 3.96875 -8.265625 C 4.582031 -8.453125 5.21875 -8.570312 5.875 -8.625 L 5.875 -9.5 C 5.875 -9.832031 5.828125 -10.09375 5.734375 -10.28125 C 5.648438 -10.476562 5.539062 -10.625 5.40625 -10.71875 C 5.28125 -10.820312 5.140625 -10.890625 4.984375 -10.921875 C 4.828125 -10.953125 4.675781 -10.96875 4.53125 -10.96875 C 4.363281 -10.96875 4.179688 -10.941406 3.984375 -10.890625 C 3.796875 -10.835938 3.613281 -10.773438 3.4375 -10.703125 C 3.257812 -10.628906 3.085938 -10.550781 2.921875 -10.46875 C 2.765625 -10.382812 2.628906 -10.304688 2.515625 -10.234375 C 2.460938 -10.203125 2.414062 -10.171875 2.375 -10.140625 C 2.332031 -10.117188 2.289062 -10.109375 2.25 -10.109375 C 2.175781 -10.109375 2.101562 -10.164062 2.03125 -10.28125 L 1.609375 -10.96875 C 1.566406 -11.019531 1.546875 -11.082031 1.546875 -11.15625 C 1.546875 -11.21875 1.570312 -11.273438 1.625 -11.328125 C 1.675781 -11.378906 1.726562 -11.421875 1.78125 -11.453125 C 2.0625 -11.648438 2.414062 -11.847656 2.84375 -12.046875 C 3.28125 -12.253906 3.769531 -12.4375 4.3125 -12.59375 C 4.851562 -12.757812 5.4375 -12.894531 6.0625 -13 C 6.6875 -13.101562 7.335938 -13.15625 8.015625 -13.15625 C 8.648438 -13.15625 9.269531 -13.132812 9.875 -13.09375 C 10.476562 -13.050781 11.050781 -12.957031 11.59375 -12.8125 C 12.132812 -12.675781 12.625 -12.476562 13.0625 -12.21875 C 13.507812 -11.957031 13.894531 -11.613281 14.21875 -11.1875 C 14.550781 -10.769531 14.804688 -10.25 14.984375 -9.625 C 15.160156 -9.007812 15.25 -8.265625 15.25 -7.390625 L 15.25 -1.71875 C 15.25 -1.4375 15.222656 -1.1875 15.171875 -0.96875 C 15.128906 -0.757812 15.035156 -0.582031 14.890625 -0.4375 C 14.742188 -0.289062 14.539062 -0.179688 14.28125 -0.109375 C 14.03125 -0.0351562 13.703125 0 13.296875 0 Z M 5.875 -7 C 5.257812 -7 4.742188 -6.921875 4.328125 -6.765625 C 3.910156 -6.617188 3.570312 -6.414062 3.3125 -6.15625 C 3.0625 -5.90625 2.878906 -5.613281 2.765625 -5.28125 C 2.660156 -4.945312 2.609375 -4.597656 2.609375 -4.234375 C 2.609375 -3.878906 2.660156 -3.539062 2.765625 -3.21875 C 2.878906 -2.90625 3.0625 -2.628906 3.3125 -2.390625 C 3.570312 -2.148438 3.910156 -1.960938 4.328125 -1.828125 C 4.742188 -1.691406 5.257812 -1.625 5.875 -1.625 Z M 5.875 -7 "/></g></g></g><g fill="#fbff47" fill-opacity="0.502"><g transform="translate(221.548036, 180.386118)"><g><path d="M 1.171875 -11.265625 C 1.171875 -11.554688 1.195312 -11.8125 1.25 -12.03125 C 1.300781 -12.257812 1.394531 -12.445312 1.53125 -12.59375 C 1.675781 -12.738281 1.875 -12.847656 2.125 -12.921875 C 2.382812 -13.003906 2.71875 -13.046875 3.125 -13.046875 L 8.703125 -13.046875 C 9.097656 -13.046875 9.414062 -13.003906 9.65625 -12.921875 C 9.894531 -12.847656 10.082031 -12.734375 10.21875 -12.578125 C 10.351562 -12.421875 10.441406 -12.226562 10.484375 -12 C 10.535156 -11.769531 10.5625 -11.503906 10.5625 -11.203125 L 10.5625 -10.265625 L 13.390625 -13.015625 C 13.566406 -13.191406 13.738281 -13.28125 13.90625 -13.28125 C 14 -13.28125 14.082031 -13.257812 14.15625 -13.21875 C 14.226562 -13.1875 14.289062 -13.144531 14.34375 -13.09375 L 14.90625 -12.484375 C 15.039062 -12.359375 15.109375 -12.222656 15.109375 -12.078125 C 15.109375 -11.984375 15.078125 -11.882812 15.015625 -11.78125 C 14.960938 -11.6875 14.878906 -11.59375 14.765625 -11.5 L 10.5625 -8.234375 L 10.5625 -1.796875 C 10.5625 -1.492188 10.535156 -1.226562 10.484375 -1 C 10.441406 -0.78125 10.347656 -0.597656 10.203125 -0.453125 C 10.066406 -0.304688 9.863281 -0.191406 9.59375 -0.109375 C 9.320312 -0.0351562 8.953125 0 8.484375 0 L 3.125 0 C 2.71875 0 2.382812 -0.0351562 2.125 -0.109375 C 1.875 -0.191406 1.675781 -0.300781 1.53125 -0.4375 C 1.394531 -0.582031 1.300781 -0.765625 1.25 -0.984375 C 1.195312 -1.210938 1.171875 -1.472656 1.171875 -1.765625 Z M 1.171875 -11.265625 "/></g></g></g><g fill="#fbff47" fill-opacity="0.502"><g transform="translate(235.690156, 180.386118)"><g><path d="M 1.171875 -11.265625 C 1.171875 -11.554688 1.195312 -11.8125 1.25 -12.03125 C 1.300781 -12.257812 1.394531 -12.445312 1.53125 -12.59375 C 1.675781 -12.738281 1.875 -12.847656 2.125 -12.921875 C 2.382812 -13.003906 2.71875 -13.046875 3.125 -13.046875 L 8.703125 -13.046875 C 9.097656 -13.046875 9.414062 -13.007812 9.65625 -12.9375 C 9.894531 -12.863281 10.082031 -12.753906 10.21875 -12.609375 C 10.351562 -12.460938 10.441406 -12.28125 10.484375 -12.0625 C 10.535156 -11.84375 10.5625 -11.578125 10.5625 -11.265625 L 10.5625 -1.75 C 10.5625 -1.457031 10.535156 -1.203125 10.484375 -0.984375 C 10.441406 -0.765625 10.351562 -0.582031 10.21875 -0.4375 C 10.082031 -0.289062 9.894531 -0.179688 9.65625 -0.109375 C 9.414062 -0.0351562 9.097656 0 8.703125 0 L 3.125 0 C 2.71875 0 2.382812 -0.0351562 2.125 -0.109375 C 1.875 -0.191406 1.675781 -0.300781 1.53125 -0.4375 C 1.394531 -0.582031 1.300781 -0.765625 1.25 -0.984375 C 1.195312 -1.210938 1.171875 -1.472656 1.171875 -1.765625 Z M 1.640625 -18.484375 C 1.640625 -19.078125 1.75 -19.628906 1.96875 -20.140625 C 2.195312 -20.660156 2.503906 -21.109375 2.890625 -21.484375 C 3.273438 -21.867188 3.722656 -22.171875 4.234375 -22.390625 C 4.753906 -22.617188 5.304688 -22.734375 5.890625 -22.734375 C 6.472656 -22.734375 7.019531 -22.617188 7.53125 -22.390625 C 8.039062 -22.171875 8.488281 -21.867188 8.875 -21.484375 C 9.257812 -21.109375 9.5625 -20.660156 9.78125 -20.140625 C 10.007812 -19.628906 10.125 -19.078125 10.125 -18.484375 C 10.125 -17.910156 10.007812 -17.363281 9.78125 -16.84375 C 9.5625 -16.332031 9.257812 -15.882812 8.875 -15.5 C 8.488281 -15.125 8.039062 -14.820312 7.53125 -14.59375 C 7.019531 -14.375 6.472656 -14.265625 5.890625 -14.265625 C 5.304688 -14.265625 4.753906 -14.375 4.234375 -14.59375 C 3.722656 -14.820312 3.273438 -15.125 2.890625 -15.5 C 2.503906 -15.882812 2.195312 -16.332031 1.96875 -16.84375 C 1.75 -17.363281 1.640625 -17.910156 1.640625 -18.484375 Z M 1.640625 -18.484375 "/></g></g></g><g fill="#fbff47" fill-opacity="0.502"><g transform="translate(247.413733, 180.386118)"><g><path d="M 6.5 0 C 6.039062 0 5.578125 -0.0234375 5.109375 -0.078125 C 4.648438 -0.140625 4.207031 -0.238281 3.78125 -0.375 C 3.363281 -0.507812 2.972656 -0.679688 2.609375 -0.890625 C 2.242188 -1.097656 1.925781 -1.359375 1.65625 -1.671875 C 1.394531 -1.992188 1.1875 -2.363281 1.03125 -2.78125 C 0.875 -3.207031 0.796875 -3.695312 0.796875 -4.25 C 0.796875 -4.988281 0.9375 -5.617188 1.21875 -6.140625 C 1.5 -6.671875 1.875 -7.109375 2.34375 -7.453125 C 2.820312 -7.804688 3.363281 -8.078125 3.96875 -8.265625 C 4.582031 -8.453125 5.21875 -8.570312 5.875 -8.625 L 5.875 -9.5 C 5.875 -9.832031 5.828125 -10.09375 5.734375 -10.28125 C 5.648438 -10.476562 5.539062 -10.625 5.40625 -10.71875 C 5.28125 -10.820312 5.140625 -10.890625 4.984375 -10.921875 C 4.828125 -10.953125 4.675781 -10.96875 4.53125 -10.96875 C 4.363281 -10.96875 4.179688 -10.941406 3.984375 -10.890625 C 3.796875 -10.835938 3.613281 -10.773438 3.4375 -10.703125 C 3.257812 -10.628906 3.085938 -10.550781 2.921875 -10.46875 C 2.765625 -10.382812 2.628906 -10.304688 2.515625 -10.234375 C 2.460938 -10.203125 2.414062 -10.171875 2.375 -10.140625 C 2.332031 -10.117188 2.289062 -10.109375 2.25 -10.109375 C 2.175781 -10.109375 2.101562 -10.164062 2.03125 -10.28125 L 1.609375 -10.96875 C 1.566406 -11.019531 1.546875 -11.082031 1.546875 -11.15625 C 1.546875 -11.21875 1.570312 -11.273438 1.625 -11.328125 C 1.675781 -11.378906 1.726562 -11.421875 1.78125 -11.453125 C 2.0625 -11.648438 2.414062 -11.847656 2.84375 -12.046875 C 3.28125 -12.253906 3.769531 -12.4375 4.3125 -12.59375 C 4.851562 -12.757812 5.4375 -12.894531 6.0625 -13 C 6.6875 -13.101562 7.335938 -13.15625 8.015625 -13.15625 C 8.648438 -13.15625 9.269531 -13.132812 9.875 -13.09375 C 10.476562 -13.050781 11.050781 -12.957031 11.59375 -12.8125 C 12.132812 -12.675781 12.625 -12.476562 13.0625 -12.21875 C 13.507812 -11.957031 13.894531 -11.613281 14.21875 -11.1875 C 14.550781 -10.769531 14.804688 -10.25 14.984375 -9.625 C 15.160156 -9.007812 15.25 -8.265625 15.25 -7.390625 L 15.25 -1.71875 C 15.25 -1.4375 15.222656 -1.1875 15.171875 -0.96875 C 15.128906 -0.757812 15.035156 -0.582031 14.890625 -0.4375 C 14.742188 -0.289062 14.539062 -0.179688 14.28125 -0.109375 C 14.03125 -0.0351562 13.703125 0 13.296875 0 Z M 5.875 -7 C 5.257812 -7 4.742188 -6.921875 4.328125 -6.765625 C 3.910156 -6.617188 3.570312 -6.414062 3.3125 -6.15625 C 3.0625 -5.90625 2.878906 -5.613281 2.765625 -5.28125 C 2.660156 -4.945312 2.609375 -4.597656 2.609375 -4.234375 C 2.609375 -3.878906 2.660156 -3.539062 2.765625 -3.21875 C 2.878906 -2.90625 3.0625 -2.628906 3.3125 -2.390625 C 3.570312 -2.148438 3.910156 -1.960938 4.328125 -1.828125 C 4.742188 -1.691406 5.257812 -1.625 5.875 -1.625 Z M 5.875 -7 "/></g></g></g><g fill="#ff0000" fill-opacity="1"><g transform="translate(107.268122, 179.601549)"><g><path d="M 1.171875 -16.5 C 1.171875 -16.800781 1.195312 -17.0625 1.25 -17.28125 C 1.300781 -17.5 1.394531 -17.679688 1.53125 -17.828125 C 1.675781 -17.984375 1.875 -18.097656 2.125 -18.171875 C 2.382812 -18.242188 2.71875 -18.28125 3.125 -18.28125 L 8.8125 -18.28125 C 9.300781 -18.28125 9.675781 -18.207031 9.9375 -18.0625 C 10.195312 -17.925781 10.378906 -17.75 10.484375 -17.53125 C 10.585938 -17.3125 10.644531 -17.082031 10.65625 -16.84375 C 10.664062 -16.601562 10.671875 -16.378906 10.671875 -16.171875 L 10.671875 -1.75 C 11.253906 -1.832031 11.796875 -1.90625 12.296875 -1.96875 C 12.515625 -2 12.726562 -2.023438 12.9375 -2.046875 C 13.15625 -2.078125 13.351562 -2.101562 13.53125 -2.125 C 13.71875 -2.15625 13.882812 -2.175781 14.03125 -2.1875 C 14.175781 -2.207031 14.28125 -2.21875 14.34375 -2.21875 C 14.488281 -2.21875 14.601562 -2.1875 14.6875 -2.125 C 14.78125 -2.070312 14.828125 -1.960938 14.828125 -1.796875 L 14.828125 -0.625 C 14.828125 -0.46875 14.757812 -0.320312 14.625 -0.1875 C 14.5 -0.0625 14.289062 0 14 0 L 3.109375 0 C 2.710938 0 2.382812 -0.0351562 2.125 -0.109375 C 1.875 -0.191406 1.675781 -0.300781 1.53125 -0.4375 C 1.394531 -0.582031 1.300781 -0.765625 1.25 -0.984375 C 1.195312 -1.210938 1.171875 -1.472656 1.171875 -1.765625 Z M 1.171875 -16.5 "/></g></g></g><g fill="#ff0000" fill-opacity="1"><g transform="translate(122.352197, 179.601549)"><g><path d="M 6.5 0 C 6.039062 0 5.578125 -0.0234375 5.109375 -0.078125 C 4.648438 -0.140625 4.207031 -0.238281 3.78125 -0.375 C 3.363281 -0.507812 2.972656 -0.679688 2.609375 -0.890625 C 2.242188 -1.097656 1.925781 -1.359375 1.65625 -1.671875 C 1.394531 -1.992188 1.1875 -2.363281 1.03125 -2.78125 C 0.875 -3.207031 0.796875 -3.695312 0.796875 -4.25 C 0.796875 -4.988281 0.9375 -5.617188 1.21875 -6.140625 C 1.5 -6.671875 1.875 -7.109375 2.34375 -7.453125 C 2.820312 -7.804688 3.363281 -8.078125 3.96875 -8.265625 C 4.582031 -8.453125 5.21875 -8.570312 5.875 -8.625 L 5.875 -9.5 C 5.875 -9.832031 5.828125 -10.09375 5.734375 -10.28125 C 5.648438 -10.476562 5.539062 -10.625 5.40625 -10.71875 C 5.28125 -10.820312 5.140625 -10.890625 4.984375 -10.921875 C 4.828125 -10.953125 4.675781 -10.96875 4.53125 -10.96875 C 4.363281 -10.96875 4.179688 -10.941406 3.984375 -10.890625 C 3.796875 -10.835938 3.613281 -10.773438 3.4375 -10.703125 C 3.257812 -10.628906 3.085938 -10.550781 2.921875 -10.46875 C 2.765625 -10.382812 2.628906 -10.304688 2.515625 -10.234375 C 2.460938 -10.203125 2.414062 -10.171875 2.375 -10.140625 C 2.332031 -10.117188 2.289062 -10.109375 2.25 -10.109375 C 2.175781 -10.109375 2.101562 -10.164062 2.03125 -10.28125 L 1.609375 -10.96875 C 1.566406 -11.019531 1.546875 -11.082031 1.546875 -11.15625 C 1.546875 -11.21875 1.570312 -11.273438 1.625 -11.328125 C 1.675781 -11.378906 1.726562 -11.421875 1.78125 -11.453125 C 2.0625 -11.648438 2.414062 -11.847656 2.84375 -12.046875 C 3.28125 -12.253906 3.769531 -12.4375 4.3125 -12.59375 C 4.851562 -12.757812 5.4375 -12.894531 6.0625 -13 C 6.6875 -13.101562 7.335938 -13.15625 8.015625 -13.15625 C 8.648438 -13.15625 9.269531 -13.132812 9.875 -13.09375 C 10.476562 -13.050781 11.050781 -12.957031 11.59375 -12.8125 C 12.132812 -12.675781 12.625 -12.476562 13.0625 -12.21875 C 13.507812 -11.957031 13.894531 -11.613281 14.21875 -11.1875 C 14.550781 -10.769531 14.804688 -10.25 14.984375 -9.625 C 15.160156 -9.007812 15.25 -8.265625 15.25 -7.390625 L 15.25 -1.71875 C 15.25 -1.4375 15.222656 -1.1875 15.171875 -0.96875 C 15.128906 -0.757812 15.035156 -0.582031 14.890625 -0.4375 C 14.742188 -0.289062 14.539062 -0.179688 14.28125 -0.109375 C 14.03125 -0.0351562 13.703125 0 13.296875 0 Z M 5.875 -7 C 5.257812 -7 4.742188 -6.921875 4.328125 -6.765625 C 3.910156 -6.617188 3.570312 -6.414062 3.3125 -6.15625 C 3.0625 -5.90625 2.878906 -5.613281 2.765625 -5.28125 C 2.660156 -4.945312 2.609375 -4.597656 2.609375 -4.234375 C 2.609375 -3.878906 2.660156 -3.539062 2.765625 -3.21875 C 2.878906 -2.90625 3.0625 -2.628906 3.3125 -2.390625 C 3.570312 -2.148438 3.910156 -1.960938 4.328125 -1.828125 C 4.742188 -1.691406 5.257812 -1.625 5.875 -1.625 Z M 5.875 -7 "/></g></g></g><g fill="#ff0000" fill-opacity="1"><g transform="translate(138.772835, 179.601549)"><g/></g></g><g fill="#ff0000" fill-opacity="1"><g transform="translate(146.58855, 179.601549)"><g><path d="M 1.171875 -16.5 C 1.171875 -16.800781 1.195312 -17.0625 1.25 -17.28125 C 1.300781 -17.5 1.394531 -17.679688 1.53125 -17.828125 C 1.675781 -17.984375 1.875 -18.097656 2.125 -18.171875 C 2.382812 -18.242188 2.71875 -18.28125 3.125 -18.28125 L 8.8125 -18.28125 C 9.394531 -18.28125 9.972656 -18.242188 10.546875 -18.171875 C 11.128906 -18.097656 11.6875 -17.976562 12.21875 -17.8125 C 12.75 -17.644531 13.238281 -17.425781 13.6875 -17.15625 C 14.144531 -16.882812 14.539062 -16.546875 14.875 -16.140625 C 15.207031 -15.734375 15.46875 -15.257812 15.65625 -14.71875 C 15.851562 -14.1875 15.953125 -13.566406 15.953125 -12.859375 C 15.953125 -11.816406 15.8125 -10.9375 15.53125 -10.21875 C 15.25 -9.5 14.863281 -8.90625 14.375 -8.4375 C 13.894531 -7.96875 13.332031 -7.609375 12.6875 -7.359375 C 12.050781 -7.117188 11.378906 -6.945312 10.671875 -6.84375 L 10.671875 -2.0625 C 10.671875 -1.863281 10.648438 -1.644531 10.609375 -1.40625 C 10.578125 -1.175781 10.492188 -0.957031 10.359375 -0.75 C 10.222656 -0.539062 10.015625 -0.363281 9.734375 -0.21875 C 9.460938 -0.0703125 9.078125 0 8.578125 0 L 3.125 0 C 2.71875 0 2.382812 -0.0351562 2.125 -0.109375 C 1.875 -0.191406 1.675781 -0.300781 1.53125 -0.4375 C 1.394531 -0.582031 1.300781 -0.765625 1.25 -0.984375 C 1.195312 -1.210938 1.171875 -1.472656 1.171875 -1.765625 Z M 14.15625 -12.671875 C 14.15625 -13.179688 14.085938 -13.648438 13.953125 -14.078125 C 13.816406 -14.503906 13.609375 -14.878906 13.328125 -15.203125 C 13.046875 -15.523438 12.6875 -15.789062 12.25 -16 C 11.8125 -16.21875 11.285156 -16.363281 10.671875 -16.4375 L 10.671875 -8.53125 C 11.285156 -8.625 11.8125 -8.789062 12.25 -9.03125 C 12.6875 -9.28125 13.046875 -9.585938 13.328125 -9.953125 C 13.609375 -10.316406 13.816406 -10.726562 13.953125 -11.1875 C 14.085938 -11.65625 14.15625 -12.148438 14.15625 -12.671875 Z M 14.15625 -12.671875 "/></g></g></g><g fill="#ff0000" fill-opacity="1"><g transform="translate(163.060105, 179.601549)"><g><path d="M 1.171875 -11.265625 C 1.171875 -11.554688 1.195312 -11.8125 1.25 -12.03125 C 1.300781 -12.257812 1.394531 -12.445312 1.53125 -12.59375 C 1.675781 -12.738281 1.875 -12.847656 2.125 -12.921875 C 2.382812 -13.003906 2.71875 -13.046875 3.125 -13.046875 L 8.703125 -13.046875 C 9.097656 -13.046875 9.414062 -13.007812 9.65625 -12.9375 C 9.894531 -12.863281 10.082031 -12.753906 10.21875 -12.609375 C 10.351562 -12.460938 10.441406 -12.28125 10.484375 -12.0625 C 10.535156 -11.84375 10.5625 -11.578125 10.5625 -11.265625 L 10.5625 -1.75 C 10.5625 -1.457031 10.535156 -1.203125 10.484375 -0.984375 C 10.441406 -0.765625 10.351562 -0.582031 10.21875 -0.4375 C 10.082031 -0.289062 9.894531 -0.179688 9.65625 -0.109375 C 9.414062 -0.0351562 9.097656 0 8.703125 0 L 3.125 0 C 2.71875 0 2.382812 -0.0351562 2.125 -0.109375 C 1.875 -0.191406 1.675781 -0.300781 1.53125 -0.4375 C 1.394531 -0.582031 1.300781 -0.765625 1.25 -0.984375 C 1.195312 -1.210938 1.171875 -1.472656 1.171875 -1.765625 Z M 1.640625 -18.484375 C 1.640625 -19.078125 1.75 -19.628906 1.96875 -20.140625 C 2.195312 -20.660156 2.503906 -21.109375 2.890625 -21.484375 C 3.273438 -21.867188 3.722656 -22.171875 4.234375 -22.390625 C 4.753906 -22.617188 5.304688 -22.734375 5.890625 -22.734375 C 6.472656 -22.734375 7.019531 -22.617188 7.53125 -22.390625 C 8.039062 -22.171875 8.488281 -21.867188 8.875 -21.484375 C 9.257812 -21.109375 9.5625 -20.660156 9.78125 -20.140625 C 10.007812 -19.628906 10.125 -19.078125 10.125 -18.484375 C 10.125 -17.910156 10.007812 -17.363281 9.78125 -16.84375 C 9.5625 -16.332031 9.257812 -15.882812 8.875 -15.5 C 8.488281 -15.125 8.039062 -14.820312 7.53125 -14.59375 C 7.019531 -14.375 6.472656 -14.265625 5.890625 -14.265625 C 5.304688 -14.265625 4.753906 -14.375 4.234375 -14.59375 C 3.722656 -14.820312 3.273438 -15.125 2.890625 -15.5 C 2.503906 -15.882812 2.195312 -16.332031 1.96875 -16.84375 C 1.75 -17.363281 1.640625 -17.910156 1.640625 -18.484375 Z M 1.640625 -18.484375 "/></g></g></g><g fill="#ff0000" fill-opacity="1"><g transform="translate(174.783676, 179.601549)"><g><path d="M 0.84375 -12.625 C 0.84375 -12.757812 0.867188 -12.863281 0.921875 -12.9375 C 0.984375 -13.007812 1.113281 -13.046875 1.3125 -13.046875 L 13.609375 -13.046875 C 13.929688 -13.046875 14.15625 -13.003906 14.28125 -12.921875 C 14.414062 -12.847656 14.484375 -12.710938 14.484375 -12.515625 C 14.484375 -12.273438 14.40625 -12.015625 14.25 -11.734375 L 9.171875 -1.796875 C 9.960938 -1.816406 10.679688 -1.84375 11.328125 -1.875 C 11.609375 -1.882812 11.882812 -1.894531 12.15625 -1.90625 C 12.4375 -1.914062 12.695312 -1.925781 12.9375 -1.9375 C 13.175781 -1.945312 13.378906 -1.953125 13.546875 -1.953125 C 13.710938 -1.960938 13.832031 -1.96875 13.90625 -1.96875 C 14.050781 -1.96875 14.1875 -1.9375 14.3125 -1.875 C 14.4375 -1.820312 14.5 -1.710938 14.5 -1.546875 L 14.5 -0.625 C 14.5 -0.46875 14.445312 -0.320312 14.34375 -0.1875 C 14.25 -0.0625 14.0625 0 13.78125 0 L 0.984375 0 C 0.734375 0 0.546875 -0.0507812 0.421875 -0.15625 C 0.304688 -0.257812 0.25 -0.378906 0.25 -0.515625 C 0.25 -0.691406 0.28125 -0.859375 0.34375 -1.015625 C 0.414062 -1.179688 0.519531 -1.398438 0.65625 -1.671875 L 5.609375 -11.25 C 4.941406 -11.21875 4.320312 -11.191406 3.75 -11.171875 C 3.507812 -11.148438 3.265625 -11.132812 3.015625 -11.125 C 2.773438 -11.113281 2.539062 -11.101562 2.3125 -11.09375 C 2.082031 -11.09375 1.878906 -11.085938 1.703125 -11.078125 C 1.523438 -11.078125 1.382812 -11.078125 1.28125 -11.078125 C 1.1875 -11.078125 1.085938 -11.097656 0.984375 -11.140625 C 0.890625 -11.191406 0.84375 -11.300781 0.84375 -11.46875 Z M 0.84375 -12.625 "/></g></g></g><g fill="#ff0000" fill-opacity="1"><g transform="translate(189.434954, 179.601549)"><g><path d="M 0.84375 -12.625 C 0.84375 -12.757812 0.867188 -12.863281 0.921875 -12.9375 C 0.984375 -13.007812 1.113281 -13.046875 1.3125 -13.046875 L 13.609375 -13.046875 C 13.929688 -13.046875 14.15625 -13.003906 14.28125 -12.921875 C 14.414062 -12.847656 14.484375 -12.710938 14.484375 -12.515625 C 14.484375 -12.273438 14.40625 -12.015625 14.25 -11.734375 L 9.171875 -1.796875 C 9.960938 -1.816406 10.679688 -1.84375 11.328125 -1.875 C 11.609375 -1.882812 11.882812 -1.894531 12.15625 -1.90625 C 12.4375 -1.914062 12.695312 -1.925781 12.9375 -1.9375 C 13.175781 -1.945312 13.378906 -1.953125 13.546875 -1.953125 C 13.710938 -1.960938 13.832031 -1.96875 13.90625 -1.96875 C 14.050781 -1.96875 14.1875 -1.9375 14.3125 -1.875 C 14.4375 -1.820312 14.5 -1.710938 14.5 -1.546875 L 14.5 -0.625 C 14.5 -0.46875 14.445312 -0.320312 14.34375 -0.1875 C 14.25 -0.0625 14.0625 0 13.78125 0 L 0.984375 0 C 0.734375 0 0.546875 -0.0507812 0.421875 -0.15625 C 0.304688 -0.257812 0.25 -0.378906 0.25 -0.515625 C 0.25 -0.691406 0.28125 -0.859375 0.34375 -1.015625 C 0.414062 -1.179688 0.519531 -1.398438 0.65625 -1.671875 L 5.609375 -11.25 C 4.941406 -11.21875 4.320312 -11.191406 3.75 -11.171875 C 3.507812 -11.148438 3.265625 -11.132812 3.015625 -11.125 C 2.773438 -11.113281 2.539062 -11.101562 2.3125 -11.09375 C 2.082031 -11.09375 1.878906 -11.085938 1.703125 -11.078125 C 1.523438 -11.078125 1.382812 -11.078125 1.28125 -11.078125 C 1.1875 -11.078125 1.085938 -11.097656 0.984375 -11.140625 C 0.890625 -11.191406 0.84375 -11.300781 0.84375 -11.46875 Z M 0.84375 -12.625 "/></g></g></g><g fill="#ff0000" fill-opacity="1"><g transform="translate(204.086232, 179.601549)"><g><path d="M 6.5 0 C 6.039062 0 5.578125 -0.0234375 5.109375 -0.078125 C 4.648438 -0.140625 4.207031 -0.238281 3.78125 -0.375 C 3.363281 -0.507812 2.972656 -0.679688 2.609375 -0.890625 C 2.242188 -1.097656 1.925781 -1.359375 1.65625 -1.671875 C 1.394531 -1.992188 1.1875 -2.363281 1.03125 -2.78125 C 0.875 -3.207031 0.796875 -3.695312 0.796875 -4.25 C 0.796875 -4.988281 0.9375 -5.617188 1.21875 -6.140625 C 1.5 -6.671875 1.875 -7.109375 2.34375 -7.453125 C 2.820312 -7.804688 3.363281 -8.078125 3.96875 -8.265625 C 4.582031 -8.453125 5.21875 -8.570312 5.875 -8.625 L 5.875 -9.5 C 5.875 -9.832031 5.828125 -10.09375 5.734375 -10.28125 C 5.648438 -10.476562 5.539062 -10.625 5.40625 -10.71875 C 5.28125 -10.820312 5.140625 -10.890625 4.984375 -10.921875 C 4.828125 -10.953125 4.675781 -10.96875 4.53125 -10.96875 C 4.363281 -10.96875 4.179688 -10.941406 3.984375 -10.890625 C 3.796875 -10.835938 3.613281 -10.773438 3.4375 -10.703125 C 3.257812 -10.628906 3.085938 -10.550781 2.921875 -10.46875 C 2.765625 -10.382812 2.628906 -10.304688 2.515625 -10.234375 C 2.460938 -10.203125 2.414062 -10.171875 2.375 -10.140625 C 2.332031 -10.117188 2.289062 -10.109375 2.25 -10.109375 C 2.175781 -10.109375 2.101562 -10.164062 2.03125 -10.28125 L 1.609375 -10.96875 C 1.566406 -11.019531 1.546875 -11.082031 1.546875 -11.15625 C 1.546875 -11.21875 1.570312 -11.273438 1.625 -11.328125 C 1.675781 -11.378906 1.726562 -11.421875 1.78125 -11.453125 C 2.0625 -11.648438 2.414062 -11.847656 2.84375 -12.046875 C 3.28125 -12.253906 3.769531 -12.4375 4.3125 -12.59375 C 4.851562 -12.757812 5.4375 -12.894531 6.0625 -13 C 6.6875 -13.101562 7.335938 -13.15625 8.015625 -13.15625 C 8.648438 -13.15625 9.269531 -13.132812 9.875 -13.09375 C 10.476562 -13.050781 11.050781 -12.957031 11.59375 -12.8125 C 12.132812 -12.675781 12.625 -12.476562 13.0625 -12.21875 C 13.507812 -11.957031 13.894531 -11.613281 14.21875 -11.1875 C 14.550781 -10.769531 14.804688 -10.25 14.984375 -9.625 C 15.160156 -9.007812 15.25 -8.265625 15.25 -7.390625 L 15.25 -1.71875 C 15.25 -1.4375 15.222656 -1.1875 15.171875 -0.96875 C 15.128906 -0.757812 15.035156 -0.582031 14.890625 -0.4375 C 14.742188 -0.289062 14.539062 -0.179688 14.28125 -0.109375 C 14.03125 -0.0351562 13.703125 0 13.296875 0 Z M 5.875 -7 C 5.257812 -7 4.742188 -6.921875 4.328125 -6.765625 C 3.910156 -6.617188 3.570312 -6.414062 3.3125 -6.15625 C 3.0625 -5.90625 2.878906 -5.613281 2.765625 -5.28125 C 2.660156 -4.945312 2.609375 -4.597656 2.609375 -4.234375 C 2.609375 -3.878906 2.660156 -3.539062 2.765625 -3.21875 C 2.878906 -2.90625 3.0625 -2.628906 3.3125 -2.390625 C 3.570312 -2.148438 3.910156 -1.960938 4.328125 -1.828125 C 4.742188 -1.691406 5.257812 -1.625 5.875 -1.625 Z M 5.875 -7 "/></g></g></g><g fill="#ff0000" fill-opacity="1"><g transform="translate(220.50687, 179.601549)"><g><path d="M 1.171875 -11.265625 C 1.171875 -11.554688 1.195312 -11.8125 1.25 -12.03125 C 1.300781 -12.257812 1.394531 -12.445312 1.53125 -12.59375 C 1.675781 -12.738281 1.875 -12.847656 2.125 -12.921875 C 2.382812 -13.003906 2.71875 -13.046875 3.125 -13.046875 L 8.703125 -13.046875 C 9.097656 -13.046875 9.414062 -13.003906 9.65625 -12.921875 C 9.894531 -12.847656 10.082031 -12.734375 10.21875 -12.578125 C 10.351562 -12.421875 10.441406 -12.226562 10.484375 -12 C 10.535156 -11.769531 10.5625 -11.503906 10.5625 -11.203125 L 10.5625 -10.265625 L 13.390625 -13.015625 C 13.566406 -13.191406 13.738281 -13.28125 13.90625 -13.28125 C 14 -13.28125 14.082031 -13.257812 14.15625 -13.21875 C 14.226562 -13.1875 14.289062 -13.144531 14.34375 -13.09375 L 14.90625 -12.484375 C 15.039062 -12.359375 15.109375 -12.222656 15.109375 -12.078125 C 15.109375 -11.984375 15.078125 -11.882812 15.015625 -11.78125 C 14.960938 -11.6875 14.878906 -11.59375 14.765625 -11.5 L 10.5625 -8.234375 L 10.5625 -1.796875 C 10.5625 -1.492188 10.535156 -1.226562 10.484375 -1 C 10.441406 -0.78125 10.347656 -0.597656 10.203125 -0.453125 C 10.066406 -0.304688 9.863281 -0.191406 9.59375 -0.109375 C 9.320312 -0.0351562 8.953125 0 8.484375 0 L 3.125 0 C 2.71875 0 2.382812 -0.0351562 2.125 -0.109375 C 1.875 -0.191406 1.675781 -0.300781 1.53125 -0.4375 C 1.394531 -0.582031 1.300781 -0.765625 1.25 -0.984375 C 1.195312 -1.210938 1.171875 -1.472656 1.171875 -1.765625 Z M 1.171875 -11.265625 "/></g></g></g><g fill="#ff0000" fill-opacity="1"><g transform="translate(234.648991, 179.601549)"><g><path d="M 1.171875 -11.265625 C 1.171875 -11.554688 1.195312 -11.8125 1.25 -12.03125 C 1.300781 -12.257812 1.394531 -12.445312 1.53125 -12.59375 C 1.675781 -12.738281 1.875 -12.847656 2.125 -12.921875 C 2.382812 -13.003906 2.71875 -13.046875 3.125 -13.046875 L 8.703125 -13.046875 C 9.097656 -13.046875 9.414062 -13.007812 9.65625 -12.9375 C 9.894531 -12.863281 10.082031 -12.753906 10.21875 -12.609375 C 10.351562 -12.460938 10.441406 -12.28125 10.484375 -12.0625 C 10.535156 -11.84375 10.5625 -11.578125 10.5625 -11.265625 L 10.5625 -1.75 C 10.5625 -1.457031 10.535156 -1.203125 10.484375 -0.984375 C 10.441406 -0.765625 10.351562 -0.582031 10.21875 -0.4375 C 10.082031 -0.289062 9.894531 -0.179688 9.65625 -0.109375 C 9.414062 -0.0351562 9.097656 0 8.703125 0 L 3.125 0 C 2.71875 0 2.382812 -0.0351562 2.125 -0.109375 C 1.875 -0.191406 1.675781 -0.300781 1.53125 -0.4375 C 1.394531 -0.582031 1.300781 -0.765625 1.25 -0.984375 C 1.195312 -1.210938 1.171875 -1.472656 1.171875 -1.765625 Z M 1.640625 -18.484375 C 1.640625 -19.078125 1.75 -19.628906 1.96875 -20.140625 C 2.195312 -20.660156 2.503906 -21.109375 2.890625 -21.484375 C 3.273438 -21.867188 3.722656 -22.171875 4.234375 -22.390625 C 4.753906 -22.617188 5.304688 -22.734375 5.890625 -22.734375 C 6.472656 -22.734375 7.019531 -22.617188 7.53125 -22.390625 C 8.039062 -22.171875 8.488281 -21.867188 8.875 -21.484375 C 9.257812 -21.109375 9.5625 -20.660156 9.78125 -20.140625 C 10.007812 -19.628906 10.125 -19.078125 10.125 -18.484375 C 10.125 -17.910156 10.007812 -17.363281 9.78125 -16.84375 C 9.5625 -16.332031 9.257812 -15.882812 8.875 -15.5 C 8.488281 -15.125 8.039062 -14.820312 7.53125 -14.59375 C 7.019531 -14.375 6.472656 -14.265625 5.890625 -14.265625 C 5.304688 -14.265625 4.753906 -14.375 4.234375 -14.59375 C 3.722656 -14.820312 3.273438 -15.125 2.890625 -15.5 C 2.503906 -15.882812 2.195312 -16.332031 1.96875 -16.84375 C 1.75 -17.363281 1.640625 -17.910156 1.640625 -18.484375 Z M 1.640625 -18.484375 "/></g></g></g><g fill="#ff0000" fill-opacity="1"><g transform="translate(246.372567, 179.601549)"><g><path d="M 6.5 0 C 6.039062 0 5.578125 -0.0234375 5.109375 -0.078125 C 4.648438 -0.140625 4.207031 -0.238281 3.78125 -0.375 C 3.363281 -0.507812 2.972656 -0.679688 2.609375 -0.890625 C 2.242188 -1.097656 1.925781 -1.359375 1.65625 -1.671875 C 1.394531 -1.992188 1.1875 -2.363281 1.03125 -2.78125 C 0.875 -3.207031 0.796875 -3.695312 0.796875 -4.25 C 0.796875 -4.988281 0.9375 -5.617188 1.21875 -6.140625 C 1.5 -6.671875 1.875 -7.109375 2.34375 -7.453125 C 2.820312 -7.804688 3.363281 -8.078125 3.96875 -8.265625 C 4.582031 -8.453125 5.21875 -8.570312 5.875 -8.625 L 5.875 -9.5 C 5.875 -9.832031 5.828125 -10.09375 5.734375 -10.28125 C 5.648438 -10.476562 5.539062 -10.625 5.40625 -10.71875 C 5.28125 -10.820312 5.140625 -10.890625 4.984375 -10.921875 C 4.828125 -10.953125 4.675781 -10.96875 4.53125 -10.96875 C 4.363281 -10.96875 4.179688 -10.941406 3.984375 -10.890625 C 3.796875 -10.835938 3.613281 -10.773438 3.4375 -10.703125 C 3.257812 -10.628906 3.085938 -10.550781 2.921875 -10.46875 C 2.765625 -10.382812 2.628906 -10.304688 2.515625 -10.234375 C 2.460938 -10.203125 2.414062 -10.171875 2.375 -10.140625 C 2.332031 -10.117188 2.289062 -10.109375 2.25 -10.109375 C 2.175781 -10.109375 2.101562 -10.164062 2.03125 -10.28125 L 1.609375 -10.96875 C 1.566406 -11.019531 1.546875 -11.082031 1.546875 -11.15625 C 1.546875 -11.21875 1.570312 -11.273438 1.625 -11.328125 C 1.675781 -11.378906 1.726562 -11.421875 1.78125 -11.453125 C 2.0625 -11.648438 2.414062 -11.847656 2.84375 -12.046875 C 3.28125 -12.253906 3.769531 -12.4375 4.3125 -12.59375 C 4.851562 -12.757812 5.4375 -12.894531 6.0625 -13 C 6.6875 -13.101562 7.335938 -13.15625 8.015625 -13.15625 C 8.648438 -13.15625 9.269531 -13.132812 9.875 -13.09375 C 10.476562 -13.050781 11.050781 -12.957031 11.59375 -12.8125 C 12.132812 -12.675781 12.625 -12.476562 13.0625 -12.21875 C 13.507812 -11.957031 13.894531 -11.613281 14.21875 -11.1875 C 14.550781 -10.769531 14.804688 -10.25 14.984375 -9.625 C 15.160156 -9.007812 15.25 -8.265625 15.25 -7.390625 L 15.25 -1.71875 C 15.25 -1.4375 15.222656 -1.1875 15.171875 -0.96875 C 15.128906 -0.757812 15.035156 -0.582031 14.890625 -0.4375 C 14.742188 -0.289062 14.539062 -0.179688 14.28125 -0.109375 C 14.03125 -0.0351562 13.703125 0 13.296875 0 Z M 5.875 -7 C 5.257812 -7 4.742188 -6.921875 4.328125 -6.765625 C 3.910156 -6.617188 3.570312 -6.414062 3.3125 -6.15625 C 3.0625 -5.90625 2.878906 -5.613281 2.765625 -5.28125 C 2.660156 -4.945312 2.609375 -4.597656 2.609375 -4.234375 C 2.609375 -3.878906 2.660156 -3.539062 2.765625 -3.21875 C 2.878906 -2.90625 3.0625 -2.628906 3.3125 -2.390625 C 3.570312 -2.148438 3.910156 -1.960938 4.328125 -1.828125 C 4.742188 -1.691406 5.257812 -1.625 5.875 -1.625 Z M 5.875 -7 "/></g></g></g><g clip-path="url(#id3)"><g clip-path="url(#id4)"><g clip-path="url(#id5)"><path fill="#f4900c" d="M 288.402344 156.335938 C 288.84375 155.816406 289.207031 155.148438 289.042969 154.449219 C 288.859375 153.664062 288.074219 153.195312 287.300781 153.171875 C 286.457031 153.148438 285.71875 153.597656 285.042969 154.054688 C 281.941406 156.148438 278.976562 158.445312 276.144531 160.886719 C 273.304688 163.332031 270.597656 165.925781 268.039062 168.660156 C 267.75 168.96875 267.464844 169.28125 267.175781 169.59375 C 267.144531 169.621094 267.113281 169.65625 267.09375 169.691406 C 266.953125 169.878906 267.003906 170.082031 267.144531 170.210938 C 267.25 170.351562 267.429688 170.429688 267.644531 170.347656 C 271.140625 168.957031 274.503906 167.230469 277.671875 165.199219 C 280.835938 163.171875 283.804688 160.835938 286.519531 158.234375 C 287.15625 157.621094 287.828125 157.011719 288.402344 156.335938 Z M 274.035156 165.015625 C 273.90625 165.179688 273.78125 165.347656 273.660156 165.515625 C 273.65625 165.460938 273.640625 165.410156 273.621094 165.359375 C 273.757812 165.246094 273.898438 165.132812 274.035156 165.015625 Z M 287.0625 154.15625 C 286.777344 154.222656 286.496094 154.292969 286.214844 154.378906 C 286.503906 154.222656 286.8125 154.097656 287.125 154.074219 C 287.101562 154.097656 287.078125 154.125 287.0625 154.15625 Z M 276.121094 162.09375 C 275.828125 162.367188 275.527344 162.632812 275.222656 162.890625 C 275.265625 162.851562 275.308594 162.8125 275.355469 162.769531 C 275.609375 162.542969 275.867188 162.320312 276.121094 162.09375 Z M 277.847656 164.015625 C 278.226562 163.746094 278.601562 163.46875 278.964844 163.179688 C 279.550781 162.710938 280.105469 162.203125 280.628906 161.664062 C 280.640625 161.773438 280.695312 161.871094 280.769531 161.941406 C 279.847656 162.640625 278.902344 163.316406 277.9375 163.957031 C 277.90625 163.976562 277.875 163.996094 277.847656 164.015625 Z M 264.722656 163.289062 C 264.742188 163.285156 264.761719 163.28125 264.78125 163.273438 C 264.792969 163.269531 264.800781 163.265625 264.808594 163.261719 C 264.820312 163.257812 264.832031 163.253906 264.84375 163.246094 C 264.914062 163.210938 264.972656 163.160156 265.007812 163.09375 C 266.589844 161.121094 268.160156 159.125 269.441406 156.941406 C 270.691406 154.8125 271.742188 152.441406 272.015625 149.972656 C 272.152344 148.734375 272.058594 147.429688 271.417969 146.335938 C 271.277344 146.09375 271.109375 145.871094 270.910156 145.667969 C 270.617188 145.363281 270.195312 145.542969 269.863281 145.703125 C 269.28125 145.976562 268.789062 146.417969 268.417969 146.941406 C 267.679688 147.980469 267.457031 149.253906 267.230469 150.480469 C 267.160156 150.660156 267.09375 150.839844 267.035156 151.019531 C 266.882812 151.496094 266.6875 152.015625 266.832031 152.511719 C 266.707031 153.113281 266.578125 153.710938 266.441406 154.308594 C 265.808594 157.117188 265.089844 159.914062 264.214844 162.664062 C 264.148438 162.789062 264.160156 162.914062 264.210938 163.023438 C 264.25 163.128906 264.328125 163.222656 264.449219 163.269531 C 264.515625 163.296875 264.585938 163.304688 264.660156 163.296875 C 264.667969 163.296875 264.671875 163.296875 264.679688 163.296875 C 264.695312 163.292969 264.707031 163.292969 264.722656 163.289062 Z M 270.394531 146.449219 C 270.40625 146.464844 270.417969 146.476562 270.429688 146.492188 C 270.398438 146.480469 270.367188 146.476562 270.335938 146.472656 C 270.355469 146.464844 270.375 146.457031 270.394531 146.449219 Z M 268.839844 152.449219 C 269.035156 152.121094 269.226562 151.789062 269.40625 151.449219 C 269.421875 151.417969 269.4375 151.382812 269.453125 151.351562 C 269.351562 151.726562 269.242188 152.101562 269.128906 152.476562 C 269.035156 152.433594 268.933594 152.421875 268.839844 152.449219 Z M 268.601562 150.164062 C 268.535156 150.121094 268.460938 150.097656 268.386719 150.085938 C 268.433594 149.996094 268.472656 149.902344 268.519531 149.808594 C 268.6875 149.488281 268.882812 149.183594 269.085938 148.882812 C 268.9375 149.316406 268.777344 149.742188 268.601562 150.164062 Z M 269.804688 146.765625 C 269.761719 146.804688 269.726562 146.851562 269.699219 146.902344 C 269.667969 146.90625 269.636719 146.917969 269.605469 146.929688 C 269.671875 146.871094 269.738281 146.816406 269.804688 146.765625 Z M 265.980469 160.40625 C 265.894531 160.515625 265.8125 160.621094 265.730469 160.730469 C 265.765625 160.605469 265.800781 160.476562 265.835938 160.351562 C 265.882812 160.375 265.929688 160.394531 265.980469 160.40625 Z M 258.867188 160.09375 C 259.949219 156.460938 259.328125 152.464844 257.292969 149.292969 C 256.714844 148.390625 256.015625 147.574219 255.226562 146.847656 C 255.039062 146.679688 254.738281 146.761719 254.59375 146.933594 C 254.023438 147.59375 254.320312 148.625 254.425781 149.394531 C 254.554688 150.320312 254.699219 151.246094 254.878906 152.160156 C 255.234375 153.972656 255.71875 155.773438 256.488281 157.453125 C 256.929688 158.414062 257.464844 159.335938 258.089844 160.191406 C 258.097656 160.203125 258.109375 160.210938 258.117188 160.21875 C 258.125 160.226562 258.128906 160.234375 258.136719 160.238281 C 258.242188 160.351562 258.375 160.382812 258.5 160.359375 C 258.660156 160.34375 258.820312 160.25 258.867188 160.09375 Z M 258.378906 158.136719 C 258.375 158.171875 258.371094 158.210938 258.367188 158.246094 C 258.359375 158.214844 258.351562 158.183594 258.34375 158.15625 C 258.355469 158.148438 258.371094 158.144531 258.378906 158.136719 Z M 255.933594 149.714844 C 256.117188 150.042969 256.28125 150.386719 256.429688 150.734375 C 256.375 150.617188 256.316406 150.503906 256.261719 150.386719 C 256.160156 150.179688 256.039062 149.949219 255.933594 149.714844 Z M 255.601562 151.089844 C 255.660156 151.21875 255.722656 151.34375 255.785156 151.472656 C 255.746094 151.519531 255.714844 151.578125 255.699219 151.640625 C 255.664062 151.457031 255.632812 151.273438 255.601562 151.089844 Z M 280.632812 175.570312 C 281.832031 175.597656 283.03125 175.574219 284.226562 175.457031 C 285.40625 175.34375 286.628906 175.167969 287.707031 174.644531 C 288.246094 174.382812 288.734375 174.046875 289.15625 173.621094 C 289.511719 173.261719 289.9375 172.75 289.992188 172.226562 C 290.058594 171.597656 289.496094 171.207031 288.96875 171.03125 C 288.476562 170.867188 287.96875 170.742188 287.457031 170.664062 C 285.347656 170.335938 283.199219 170.703125 281.15625 171.261719 C 278.570312 171.964844 276.046875 172.929688 273.605469 174.039062 C 273.589844 174.035156 273.570312 174.035156 273.554688 174.03125 C 273.253906 173.996094 273.074219 174.222656 273.058594 174.460938 C 272.96875 174.78125 273.246094 175.1875 273.636719 175.011719 C 273.671875 174.996094 273.707031 174.980469 273.742188 174.964844 C 276.03125 175.246094 278.324219 175.519531 280.632812 175.570312 Z M 287.496094 172.753906 C 287.5 172.753906 287.5 172.753906 287.5 172.753906 C 287.5 172.753906 287.5 172.753906 287.496094 172.753906 Z M 286.410156 172.886719 C 286.382812 172.855469 286.355469 172.828125 286.320312 172.804688 C 286.378906 172.808594 286.4375 172.808594 286.5 172.8125 C 286.46875 172.839844 286.441406 172.863281 286.410156 172.886719 Z M 281.011719 174.683594 C 280.824219 174.679688 280.632812 174.675781 280.441406 174.667969 C 280.445312 174.648438 280.453125 174.632812 280.453125 174.613281 C 280.453125 174.613281 280.453125 174.609375 280.453125 174.609375 C 281.710938 174.714844 282.972656 174.605469 284.21875 174.40625 C 284.214844 174.457031 284.222656 174.503906 284.242188 174.550781 C 283.167969 174.660156 282.089844 174.703125 281.011719 174.683594 Z M 285.984375 174.285156 C 286.144531 174.191406 286.304688 174.089844 286.457031 173.984375 C 286.6875 173.933594 286.914062 173.878906 287.140625 173.816406 C 287.332031 173.765625 287.519531 173.703125 287.699219 173.628906 C 287.621094 173.675781 287.542969 173.722656 287.464844 173.761719 C 286.992188 174.003906 286.496094 174.167969 285.984375 174.285156 Z M 289.082031 172.1875 C 289.082031 172.199219 289.078125 172.210938 289.078125 172.222656 C 289.054688 172.128906 289.003906 172.042969 288.9375 171.988281 C 289.023438 172.035156 289.089844 172.09375 289.082031 172.1875 Z M 288.277344 171.75 C 288.144531 171.746094 288.015625 171.753906 287.886719 171.773438 C 287.882812 171.730469 287.878906 171.6875 287.867188 171.648438 C 288.003906 171.675781 288.140625 171.710938 288.277344 171.75 Z M 280.21875 172.472656 C 280.113281 172.542969 280.007812 172.613281 279.90625 172.6875 C 279.824219 172.746094 279.769531 172.839844 279.742188 172.9375 C 279.351562 173.027344 278.957031 173.117188 278.566406 173.207031 C 278.109375 173.308594 277.65625 173.414062 277.199219 173.515625 C 278.195312 173.140625 279.203125 172.789062 280.21875 172.472656 Z M 285.050781 183.851562 C 285.113281 183.066406 284.246094 182.511719 283.648438 182.203125 C 282.316406 181.519531 280.847656 181.042969 279.402344 180.667969 C 277.800781 180.257812 276.15625 180.023438 274.503906 179.960938 C 274.046875 179.945312 273.871094 180.503906 274.109375 180.746094 C 274.136719 180.863281 274.214844 180.976562 274.355469 181.042969 C 275.84375 181.746094 277.335938 182.449219 278.824219 183.152344 C 278.867188 183.230469 278.9375 183.292969 279.035156 183.339844 C 279.339844 183.472656 279.65625 183.585938 279.972656 183.691406 C 280.410156 183.890625 280.851562 184.085938 281.296875 184.265625 C 281.976562 184.535156 282.722656 184.855469 283.460938 184.90625 C 284.144531 184.957031 284.992188 184.636719 285.050781 183.851562 Z M 282.289062 182.578125 C 282.453125 182.640625 282.613281 182.707031 282.777344 182.777344 C 282.601562 182.71875 282.425781 182.660156 282.25 182.601562 C 282.261719 182.59375 282.277344 182.585938 282.289062 182.578125 Z M 283.425781 183.25 C 283.421875 183.1875 283.40625 183.125 283.371094 183.070312 C 283.464844 183.121094 283.554688 183.175781 283.640625 183.238281 C 283.570312 183.242188 283.496094 183.246094 283.425781 183.25 Z M 278.871094 181.472656 C 278.515625 181.425781 278.160156 181.378906 277.804688 181.328125 C 277.625 181.304688 277.488281 181.375 277.402344 181.484375 C 277.078125 181.332031 276.75 181.175781 276.421875 181.023438 C 277.246094 181.125 278.066406 181.277344 278.871094 181.472656 Z M 278.871094 181.472656 " fill-opacity="1" fill-rule="nonzero"/></g></g></g></svg>